<svg id="svg" version="1.1" xmlns="http://www.w3.org/2000/svg" xmlns:xlink="http://www.w3.org/1999/xlink" width="400" height="400" viewBox="0, 0, 400,400"><g id="svgg"><path id="path0" d="M195.898 118.363 C 189.742 119.297,187.398 120.367,175.195 127.812 C 162.394 135.622,149.342 143.393,139.258 149.210 C 122.783 158.713,120.657 160.673,117.644 169.141 L 116.602 172.070 116.490 208.203 C 116.362 249.947,116.322 249.450,120.366 256.488 C 123.818 262.496,126.026 264.369,138.281 271.688 C 142.900 274.446,154.414 281.360,163.867 287.053 C 191.603 303.753,190.949 303.445,199.426 303.805 C 207.635 304.154,209.583 303.440,226.076 294.029 L 236.723 287.955 240.097 293.409 C 241.953 296.408,243.837 299.118,244.283 299.431 C 245.289 300.135,272.952 300.287,274.244 299.596 C 275.698 298.818,275.049 297.314,268.502 286.298 C 264.929 280.285,262.072 275.320,262.155 275.264 C 262.237 275.209,263.447 274.482,264.844 273.649 C 275.413 267.343,282.032 257.460,283.594 245.650 C 284.379 239.721,283.926 176.156,283.079 173.242 C 280.387 163.985,274.706 157.238,264.648 151.355 C 262.500 150.098,253.359 144.591,244.336 139.116 C 235.313 133.641,224.854 127.296,221.094 125.015 C 210.796 118.768,204.384 117.075,195.898 118.363 M204.102 149.930 C 205.176 150.307,210.889 153.493,216.797 157.009 C 222.705 160.524,231.582 165.791,236.523 168.712 C 248.581 175.840,251.533 178.822,253.774 186.133 C 254.875 189.727,254.877 234.354,253.776 237.209 C 251.681 242.639,245.265 248.720,243.888 246.582 C 243.646 246.206,241.296 242.471,238.666 238.281 C 230.106 224.645,233.005 226.172,215.672 226.172 C 197.600 226.172,198.321 225.241,206.195 238.408 C 218.762 259.424,220.366 262.211,220.054 262.492 C 219.874 262.655,216.854 264.492,213.342 266.575 C 198.381 275.449,200.766 275.722,178.711 262.616 C 171.836 258.530,162.988 253.277,159.048 250.942 C 144.537 242.341,145.249 244.379,145.398 211.859 C 145.558 177.243,143.653 180.279,177.376 160.900 C 198.795 148.592,199.485 148.309,204.102 149.930 M295.106 204.297 C 295.106 218.369,295.155 224.126,295.215 217.090 C 295.274 210.054,295.274 198.540,295.215 191.504 C 295.155 184.468,295.106 190.225,295.106 204.297 M310.938 182.778 C 311.475 183.217,312.090 183.578,312.305 183.579 C 312.723 183.582,312.016 183.041,310.742 182.383 C 310.223 182.114,310.289 182.247,310.938 182.778 M319.922 188.066 C 319.922 188.173,320.449 188.534,321.094 188.867 C 321.738 189.200,322.266 189.385,322.266 189.278 C 322.266 189.170,321.738 188.810,321.094 188.477 C 320.449 188.143,319.922 187.958,319.922 188.066 M327.090 192.483 C 327.242 192.730,327.921 193.327,328.598 193.809 C 329.275 194.291,329.704 194.483,329.551 194.236 C 329.398 193.989,328.719 193.392,328.043 192.910 C 327.366 192.428,326.937 192.236,327.090 192.483 M330.149 195.516 C 330.510 195.942,331.256 197.258,331.805 198.439 C 332.355 199.620,332.807 200.360,332.809 200.085 C 332.815 199.272,330.981 195.897,330.206 195.295 C 329.527 194.767,329.524 194.778,330.149 195.516 M333.392 244.922 C 333.392 268.018,333.439 277.466,333.496 265.918 C 333.554 254.370,333.554 235.474,333.496 223.926 C 333.439 212.378,333.392 221.826,333.392 244.922 M295.080 236.133 C 295.080 239.570,295.140 240.924,295.213 239.142 C 295.285 237.359,295.285 234.546,295.212 232.892 C 295.139 231.237,295.080 232.695,295.080 236.133 M292.801 254.911 C 292.658 255.483,292.615 256.027,292.708 256.119 C 292.800 256.211,292.992 255.818,293.136 255.246 C 293.280 254.673,293.322 254.129,293.230 254.037 C 293.138 253.945,292.945 254.338,292.801 254.911 M288.867 264.453 C 288.534 265.098,288.349 265.625,288.456 265.625 C 288.564 265.625,288.925 265.098,289.258 264.453 C 289.591 263.809,289.776 263.281,289.669 263.281 C 289.561 263.281,289.200 263.809,288.867 264.453 M281.044 275.098 L 278.320 277.930 281.152 275.206 C 283.783 272.676,284.163 272.266,283.876 272.266 C 283.817 272.266,282.542 273.540,281.044 275.098 M280.199 284.180 C 280.529 284.824,281.092 285.703,281.449 286.133 C 281.806 286.563,281.704 286.211,281.221 285.352 C 280.156 283.456,279.359 282.541,280.199 284.180 M332.500 288.945 C 332.256 289.740,332.121 290.455,332.200 290.534 C 332.279 290.613,332.555 290.039,332.813 289.258 C 333.070 288.477,333.205 287.762,333.112 287.669 C 333.019 287.577,332.744 288.151,332.500 288.945 M331.050 292.196 C 330.694 292.885,329.676 294.264,328.789 295.260 C 327.216 297.025,327.212 297.037,328.627 295.724 C 330.322 294.151,332.246 291.491,331.923 291.168 C 331.799 291.044,331.407 291.507,331.050 292.196 M286.830 298.633 C 286.833 299.707,286.909 300.100,286.999 299.506 C 287.089 298.913,287.086 298.034,286.994 297.553 C 286.901 297.073,286.828 297.559,286.830 298.633 M321.680 300.052 C 320.605 300.717,319.551 301.441,319.336 301.663 C 318.904 302.108,321.595 300.576,323.080 299.532 C 324.640 298.436,323.768 298.759,321.680 300.052 M309.863 307.252 C 308.950 307.800,308.203 308.340,308.203 308.452 C 308.203 308.663,310.838 307.166,311.504 306.578 C 312.175 305.985,311.550 306.242,309.863 307.252 M224.512 307.645 C 223.051 308.438,223.140 308.768,224.609 308.008 C 225.254 307.675,225.781 307.318,225.781 307.217 C 225.781 306.965,225.739 306.979,224.512 307.645 M279.883 309.408 C 278.809 310.024,278.069 310.533,278.238 310.538 C 278.742 310.553,281.567 309.029,281.832 308.599 C 282.140 308.101,282.209 308.073,279.883 309.408 M217.969 311.328 C 216.787 311.952,215.958 312.471,216.126 312.482 C 216.541 312.507,220.313 310.582,220.313 310.345 C 220.313 310.084,220.367 310.061,217.969 311.328 M295.605 315.848 C 294.145 316.641,294.234 316.971,295.703 316.211 C 296.348 315.878,296.875 315.522,296.875 315.420 C 296.875 315.168,296.833 315.182,295.605 315.848 M289.160 319.752 C 288.247 320.300,287.500 320.840,287.500 320.952 C 287.500 321.163,290.135 319.666,290.801 319.078 C 291.472 318.485,290.847 318.742,289.160 319.752 M212.891 320.488 C 212.891 320.595,213.418 320.956,214.063 321.289 C 214.707 321.622,215.234 321.807,215.234 321.700 C 215.234 321.592,214.707 321.232,214.063 320.898 C 213.418 320.565,212.891 320.380,212.891 320.488 M280.371 325.024 C 278.921 325.894,277.734 326.704,277.734 326.824 C 277.734 326.945,278.130 326.788,278.613 326.477 C 279.097 326.165,280.327 325.425,281.348 324.832 C 282.919 323.919,283.536 323.430,283.105 323.440 C 283.052 323.441,281.821 324.154,280.371 325.024 M223.633 326.846 C 223.848 327.051,224.727 327.614,225.586 328.096 C 226.445 328.579,226.797 328.681,226.367 328.324 C 225.494 327.599,223.020 326.261,223.633 326.846 M272.559 329.711 C 271.108 330.581,269.922 331.392,269.922 331.512 C 269.922 331.632,270.317 331.476,270.801 331.164 C 271.284 330.853,272.515 330.113,273.535 329.520 C 275.107 328.606,275.724 328.118,275.293 328.127 C 275.239 328.128,274.009 328.841,272.559 329.711 M228.516 329.863 C 228.516 329.970,229.043 330.331,229.688 330.664 C 230.332 330.997,230.859 331.182,230.859 331.075 C 230.859 330.967,230.332 330.607,229.688 330.273 C 229.043 329.940,228.516 329.755,228.516 329.863 M235.156 333.769 C 235.156 333.876,235.684 334.237,236.328 334.570 C 236.973 334.904,237.500 335.088,237.500 334.981 C 237.500 334.874,236.973 334.513,236.328 334.180 C 235.684 333.846,235.156 333.662,235.156 333.769 M263.379 335.197 C 262.251 335.855,261.328 336.483,261.328 336.593 C 261.328 336.810,264.802 334.878,265.410 334.323 C 266.072 333.719,265.471 333.978,263.379 335.197 M238.672 335.722 C 238.672 335.830,239.199 336.190,239.844 336.523 C 240.488 336.857,241.016 337.042,241.016 336.934 C 241.016 336.827,240.488 336.466,239.844 336.133 C 239.199 335.800,238.672 335.615,238.672 335.722 M244.336 338.672 C 244.766 338.857,245.469 339.002,245.898 338.996 C 246.526 338.987,246.488 338.923,245.703 338.672 C 244.368 338.244,243.341 338.244,244.336 338.672 M247.563 339.339 C 248.049 339.432,248.752 339.429,249.126 339.331 C 249.499 339.233,249.102 339.157,248.242 339.161 C 247.383 339.165,247.077 339.245,247.563 339.339 M251.074 339.345 C 251.772 339.432,252.915 339.432,253.613 339.345 C 254.312 339.258,253.740 339.188,252.344 339.188 C 250.947 339.188,250.376 339.258,251.074 339.345 " stroke="none" fill="#262a2c" fill-rule="evenodd"></path><path id="path1" d="M197.813 46.093 C 196.718 46.253,195.183 46.595,194.403 46.853 C 193.623 47.110,192.808 47.213,192.594 47.080 C 192.092 46.770,190.538 47.590,190.806 48.024 C 190.918 48.204,187.187 50.602,182.516 53.351 C 177.845 56.100,172.305 59.379,170.205 60.637 C 168.104 61.895,166.188 62.802,165.945 62.652 C 165.703 62.502,165.610 62.551,165.740 62.760 C 166.091 63.329,161.779 65.799,160.590 65.710 C 159.887 65.657,159.735 65.738,160.100 65.971 C 160.470 66.206,160.499 66.389,160.198 66.576 C 159.960 66.723,159.563 66.718,159.315 66.564 C 159.043 66.396,158.969 66.457,159.130 66.717 C 159.466 67.261,157.962 68.100,157.316 67.729 C 157.052 67.577,156.965 67.596,157.123 67.770 C 157.540 68.231,156.189 69.114,155.273 68.979 C 154.844 68.916,154.728 68.942,155.017 69.038 C 155.390 69.162,155.293 69.386,154.681 69.814 C 153.955 70.323,153.761 70.332,153.436 69.876 C 153.128 69.443,153.091 69.461,153.251 69.966 C 153.462 70.635,150.737 72.482,150.253 71.998 C 150.114 71.859,150.000 71.941,150.000 72.182 C 150.000 72.778,145.572 75.333,144.670 75.256 C 144.272 75.223,143.984 75.398,144.031 75.646 C 144.146 76.257,138.779 79.409,138.216 79.061 C 137.971 78.910,137.874 78.954,138.002 79.160 C 138.247 79.558,126.415 86.849,125.524 86.849 C 125.236 86.849,125.087 86.936,125.194 87.043 C 125.539 87.388,123.015 88.698,122.535 88.422 C 122.279 88.276,122.203 88.302,122.365 88.481 C 122.704 88.854,119.646 91.000,118.989 90.851 C 118.750 90.797,118.701 90.832,118.879 90.927 C 119.058 91.023,118.723 91.604,118.136 92.217 C 117.549 92.830,116.875 93.222,116.639 93.088 C 116.404 92.953,116.337 92.983,116.490 93.153 C 116.644 93.323,116.350 94.186,115.837 95.071 C 113.676 98.802,113.676 98.802,113.572 127.640 L 113.477 154.284 115.510 152.002 C 118.698 148.422,122.457 145.809,133.594 139.433 C 147.820 131.287,155.708 126.616,176.563 113.985 C 185.339 108.669,192.624 106.751,202.518 107.150 C 212.989 107.573,214.704 108.307,238.018 122.359 C 248.368 128.597,260.527 135.889,265.039 138.565 C 275.518 144.780,278.618 147.025,282.767 151.406 L 286.133 154.960 286.073 127.762 C 286.012 99.670,285.969 98.860,284.388 95.705 C 284.011 94.952,283.779 94.072,283.873 93.750 C 284.014 93.267,283.978 93.259,283.665 93.705 C 283.279 94.258,282.129 92.823,282.349 92.061 C 282.400 91.884,282.281 91.838,282.085 91.959 C 281.624 92.244,280.775 91.230,281.156 90.849 C 281.315 90.690,281.270 90.617,281.055 90.687 C 280.581 90.842,272.581 86.143,272.854 85.870 C 272.960 85.764,272.821 85.677,272.544 85.677 C 271.632 85.677,268.352 83.531,268.615 83.106 C 268.770 82.855,268.683 82.808,268.396 82.985 C 267.754 83.382,256.535 76.659,256.888 76.088 C 257.038 75.844,256.973 75.771,256.736 75.917 C 256.147 76.282,255.032 75.782,255.336 75.289 C 255.478 75.060,255.404 74.994,255.168 75.139 C 254.334 75.655,251.869 73.818,252.431 73.100 C 252.872 72.535,252.853 72.521,252.267 72.979 C 251.696 73.427,251.225 73.272,248.825 71.846 C 246.776 70.629,246.179 70.097,246.557 69.826 C 246.924 69.562,246.861 69.526,246.336 69.697 C 245.413 69.998,242.057 68.105,242.434 67.496 C 242.591 67.242,242.519 67.178,242.259 67.338 C 241.692 67.689,239.355 66.490,239.656 66.003 C 239.782 65.800,239.649 65.724,239.362 65.834 C 239.075 65.945,238.450 65.672,237.975 65.229 C 237.499 64.785,237.109 64.524,237.109 64.647 C 237.109 64.770,236.753 64.680,236.317 64.447 C 235.881 64.214,235.645 63.829,235.792 63.592 C 235.949 63.338,235.880 63.271,235.625 63.428 C 235.387 63.576,233.558 62.752,231.561 61.599 C 225.656 58.187,224.185 57.197,224.503 56.847 C 224.669 56.664,224.596 56.635,224.340 56.782 C 223.760 57.115,221.380 55.714,221.779 55.275 C 221.939 55.098,221.870 55.067,221.626 55.207 C 221.382 55.346,218.657 53.947,215.572 52.097 C 212.486 50.247,209.389 48.458,208.689 48.121 C 207.765 47.677,207.552 47.413,207.908 47.155 C 208.258 46.902,208.214 46.860,207.753 47.007 C 207.398 47.120,206.343 46.986,205.409 46.709 C 202.977 45.988,200.112 45.756,197.813 46.093 M112.500 133.594 C 112.500 134.023,112.638 134.375,112.807 134.375 C 112.977 134.375,113.141 134.023,113.174 133.594 C 113.206 133.164,113.068 132.813,112.866 132.813 C 112.665 132.813,112.500 133.164,112.500 133.594 M112.605 144.949 C 112.574 145.364,112.713 145.703,112.915 145.703 C 113.360 145.703,113.405 144.654,112.972 144.386 C 112.801 144.281,112.637 144.534,112.605 144.949 " stroke="none" fill="#fb232c" fill-rule="evenodd"></path><path id="path2" d="M294.237 173.710 C 294.182 174.446,294.270 174.966,294.432 174.866 C 294.594 174.766,294.727 190.927,294.727 210.779 C 294.727 230.632,294.579 246.875,294.399 246.875 C 294.219 246.875,294.195 247.600,294.344 248.487 C 294.535 249.614,294.488 250.019,294.189 249.835 C 293.896 249.653,293.840 249.963,294.012 250.823 C 294.196 251.741,294.138 251.998,293.795 251.786 C 293.455 251.575,293.401 251.786,293.596 252.565 C 293.790 253.338,293.736 253.553,293.401 253.346 C 293.065 253.138,293.011 253.353,293.205 254.127 C 293.383 254.833,293.334 255.109,293.062 254.941 C 292.801 254.779,292.732 254.994,292.871 255.529 C 293.032 256.143,292.958 256.289,292.598 256.067 C 292.230 255.839,292.175 255.986,292.383 256.641 C 292.585 257.279,292.532 257.439,292.188 257.227 C 291.843 257.014,291.790 257.174,291.992 257.813 C 292.181 258.407,292.132 258.606,291.843 258.427 C 291.575 258.261,291.502 258.389,291.648 258.769 C 291.776 259.103,291.676 259.375,291.425 259.375 C 291.174 259.375,291.068 259.535,291.189 259.730 C 291.528 260.278,290.986 261.356,290.518 261.066 C 290.257 260.905,290.195 261.052,290.351 261.459 C 290.488 261.817,290.420 262.109,290.199 262.109 C 289.978 262.109,289.906 262.285,290.039 262.500 C 290.172 262.715,290.094 262.891,289.867 262.891 C 289.639 262.891,289.474 263.022,289.499 263.184 C 289.629 264.003,289.405 264.469,289.002 264.221 C 288.704 264.036,288.658 264.115,288.867 264.452 C 289.065 264.773,288.915 265.157,288.462 265.489 C 288.065 265.779,287.896 266.016,288.086 266.016 C 288.275 266.016,288.089 266.292,287.672 266.631 C 287.255 266.969,287.134 267.134,287.402 266.998 C 288.281 266.553,287.916 267.241,286.621 268.468 C 285.923 269.130,285.615 269.533,285.938 269.363 C 286.260 269.194,286.076 269.470,285.528 269.977 C 284.981 270.484,284.805 270.738,285.138 270.541 C 285.470 270.345,285.027 270.872,284.154 271.713 C 283.280 272.554,282.929 272.985,283.372 272.671 C 283.816 272.356,282.954 273.367,281.456 274.917 C 278.846 277.617,278.027 278.319,278.761 277.228 C 278.948 276.949,278.708 277.169,278.228 277.716 C 277.306 278.765,277.232 279.626,278.006 280.273 C 278.263 280.488,278.526 280.927,278.592 281.249 C 278.657 281.570,278.975 282.067,279.297 282.352 C 279.818 282.813,279.818 282.842,279.297 282.612 C 278.975 282.470,279.132 282.697,279.646 283.116 C 280.244 283.603,280.469 284.059,280.269 284.382 C 280.085 284.679,280.113 284.790,280.337 284.652 C 280.545 284.523,281.037 284.961,281.430 285.626 C 281.934 286.480,281.984 286.750,281.599 286.547 C 281.300 286.389,281.439 286.583,281.910 286.978 C 282.380 287.372,282.819 287.958,282.886 288.280 C 282.953 288.601,283.271 289.098,283.594 289.383 C 284.115 289.844,284.115 289.874,283.594 289.648 C 283.203 289.479,283.233 289.580,283.685 289.951 C 284.058 290.257,284.248 290.621,284.109 290.761 C 283.969 290.901,284.070 291.016,284.333 291.016 C 284.596 291.016,284.714 291.173,284.596 291.365 C 284.477 291.558,284.660 291.823,285.004 291.955 C 285.347 292.086,285.533 292.442,285.417 292.744 C 285.301 293.047,285.478 293.399,285.811 293.527 C 286.188 293.672,286.340 294.052,286.214 294.536 C 286.102 294.963,286.173 295.313,286.372 295.313 C 286.571 295.313,286.617 295.778,286.474 296.347 C 286.291 297.076,286.347 297.300,286.662 297.106 C 286.973 296.913,287.109 297.377,287.109 298.633 C 287.109 299.889,286.973 300.353,286.662 300.160 C 286.347 299.965,286.291 300.190,286.474 300.918 C 286.640 301.579,286.575 301.953,286.294 301.953 C 286.052 301.953,285.955 302.217,286.079 302.539 C 286.202 302.861,286.123 303.125,285.902 303.125 C 285.681 303.125,285.626 303.327,285.779 303.575 C 285.932 303.822,285.733 304.262,285.337 304.551 C 284.940 304.841,284.723 305.078,284.852 305.078 C 284.982 305.078,284.135 306.054,282.971 307.248 C 281.726 308.522,280.668 309.303,280.405 309.140 C 280.108 308.957,280.065 309.038,280.277 309.381 C 280.511 309.760,280.417 309.829,279.927 309.641 C 279.558 309.500,279.352 309.539,279.470 309.729 C 279.763 310.204,278.660 310.578,277.866 310.273 C 277.419 310.101,277.307 310.171,277.508 310.496 C 277.722 310.843,277.517 310.898,276.732 310.701 C 276.131 310.550,275.759 310.586,275.881 310.783 C 276.007 310.987,269.113 311.133,259.338 311.133 C 250.120 311.133,242.578 310.998,242.578 310.832 C 242.578 310.667,242.112 310.649,241.543 310.792 C 240.746 310.992,240.581 310.933,240.826 310.537 C 241.056 310.166,240.964 310.092,240.494 310.273 C 240.136 310.410,239.844 310.358,239.844 310.156 C 239.844 309.955,239.587 309.889,239.273 310.009 C 238.944 310.135,238.254 309.757,237.646 309.118 C 237.066 308.507,236.720 308.271,236.878 308.594 C 237.037 308.916,236.756 308.740,236.254 308.203 C 235.753 307.666,234.905 306.807,234.371 306.294 C 233.836 305.781,233.662 305.489,233.984 305.644 C 234.307 305.800,234.131 305.545,233.594 305.078 C 233.057 304.611,232.881 304.358,233.203 304.516 C 233.636 304.727,233.680 304.683,233.370 304.345 C 232.839 303.766,231.250 303.444,231.250 303.915 C 231.250 304.110,230.877 304.469,230.422 304.713 C 229.785 305.053,229.660 305.047,229.883 304.688 C 230.105 304.328,229.980 304.322,229.344 304.662 C 228.888 304.906,228.516 305.305,228.516 305.548 C 228.516 305.791,228.413 305.887,228.288 305.762 C 228.162 305.636,227.717 305.877,227.297 306.297 C 226.877 306.716,226.383 306.966,226.199 306.852 C 226.014 306.738,225.755 306.926,225.624 307.269 C 225.483 307.637,225.136 307.798,224.781 307.662 C 224.436 307.530,224.280 307.596,224.417 307.817 C 224.632 308.165,224.115 308.372,223.340 308.249 C 223.179 308.224,223.047 308.373,223.047 308.580 C 223.047 308.787,222.674 309.156,222.218 309.400 C 221.551 309.758,221.443 309.741,221.662 309.316 C 221.811 309.026,221.656 309.130,221.318 309.547 C 220.980 309.964,220.703 310.184,220.703 310.036 C 220.703 309.887,220.338 310.131,219.892 310.577 C 219.445 311.023,218.821 311.289,218.504 311.167 C 218.134 311.026,218.028 311.108,218.208 311.399 C 218.396 311.704,218.269 311.768,217.817 311.594 C 217.449 311.453,217.243 311.492,217.360 311.682 C 217.618 312.099,216.482 312.593,215.980 312.283 C 215.785 312.162,215.625 312.260,215.625 312.500 C 215.625 312.740,215.449 312.828,215.234 312.695 C 215.020 312.563,214.844 312.659,214.844 312.909 C 214.844 313.161,214.572 313.260,214.238 313.132 C 213.858 312.986,213.730 313.059,213.896 313.328 C 214.075 313.617,213.875 313.665,213.281 313.477 C 212.643 313.274,212.482 313.327,212.695 313.672 C 212.908 314.016,212.748 314.070,212.109 313.867 C 211.458 313.661,211.309 313.715,211.533 314.078 C 211.760 314.445,211.570 314.500,210.768 314.299 C 210.012 314.109,209.781 314.162,209.977 314.479 C 210.175 314.800,209.880 314.853,208.936 314.667 C 207.914 314.464,207.749 314.504,208.203 314.843 C 208.652 315.178,208.377 315.224,207.031 315.039 C 205.752 314.863,205.433 314.909,205.859 315.205 C 206.352 315.548,206.322 315.615,205.664 315.628 C 204.946 315.641,204.962 315.705,205.859 316.408 C 206.396 316.829,207.050 317.097,207.312 317.002 C 207.573 316.908,207.908 317.026,208.056 317.265 C 208.228 317.543,208.127 317.597,207.775 317.414 C 207.473 317.258,207.560 317.401,207.968 317.732 C 208.375 318.063,208.859 318.242,209.042 318.128 C 209.352 317.937,209.541 318.521,209.412 319.267 C 209.381 319.444,209.539 319.476,209.762 319.338 C 209.986 319.200,210.063 318.879,209.933 318.625 C 209.804 318.372,210.080 318.604,210.547 319.141 C 211.014 319.678,211.282 319.897,211.144 319.629 C 210.718 318.805,211.312 319.085,212.387 320.215 C 212.949 320.806,213.273 321.055,213.107 320.769 C 212.885 320.387,213.129 320.416,214.020 320.876 C 214.688 321.222,215.234 321.598,215.234 321.713 C 215.234 321.827,215.059 321.812,214.844 321.680 C 214.629 321.547,214.453 321.530,214.453 321.643 C 214.453 321.755,214.826 322.047,215.282 322.291 C 215.864 322.602,216.031 322.607,215.844 322.305 C 215.349 321.504,216.048 321.870,217.075 322.949 C 217.637 323.540,217.959 323.786,217.790 323.496 C 217.542 323.070,217.642 323.054,218.312 323.412 C 218.768 323.656,219.141 323.948,219.141 324.060 C 219.141 324.173,218.965 324.156,218.750 324.023 C 218.535 323.891,218.359 323.874,218.359 323.987 C 218.359 324.099,218.732 324.391,219.188 324.635 C 219.824 324.975,219.949 324.969,219.727 324.609 C 219.507 324.254,219.627 324.242,220.219 324.560 C 220.650 324.790,221.104 325.244,221.228 325.569 C 221.353 325.893,221.707 326.062,222.016 325.943 C 222.325 325.825,222.710 325.943,222.872 326.206 C 223.061 326.511,223.005 326.583,222.717 326.404 C 222.469 326.251,222.266 326.218,222.266 326.330 C 222.266 326.443,222.638 326.735,223.094 326.978 C 223.725 327.316,223.855 327.312,223.637 326.960 C 223.298 326.411,225.206 327.361,226.367 328.320 C 226.797 328.674,226.929 328.853,226.660 328.717 C 225.812 328.287,226.133 328.858,227.000 329.322 C 227.668 329.679,227.776 329.663,227.557 329.238 C 227.408 328.948,227.557 329.044,227.888 329.452 C 228.220 329.860,228.405 330.331,228.301 330.499 C 228.197 330.668,228.282 330.910,228.489 331.038 C 228.698 331.168,228.798 330.921,228.713 330.481 C 228.568 329.728,228.615 329.719,229.710 330.285 C 230.342 330.612,230.859 330.973,230.859 331.088 C 230.859 331.202,230.684 331.187,230.469 331.055 C 230.254 330.922,230.078 330.905,230.078 331.018 C 230.078 331.130,230.451 331.422,230.907 331.666 C 231.543 332.006,231.668 332.000,231.445 331.641 C 231.223 331.281,231.348 331.275,231.984 331.615 C 232.440 331.859,232.813 332.222,232.813 332.422 C 232.813 332.622,233.185 332.985,233.641 333.228 C 234.309 333.586,234.416 333.570,234.193 333.144 C 234.041 332.854,234.299 333.057,234.766 333.594 C 235.233 334.131,235.492 334.336,235.342 334.050 C 235.141 333.664,235.386 333.692,236.285 334.157 C 236.953 334.503,237.500 334.879,237.500 334.994 C 237.500 335.109,237.280 335.091,237.012 334.955 C 236.743 334.819,236.865 334.984,237.282 335.323 C 237.699 335.661,238.193 335.938,238.379 335.938 C 238.565 335.938,238.593 336.140,238.439 336.388 C 238.265 336.670,238.332 336.733,238.618 336.557 C 238.869 336.401,238.965 336.096,238.831 335.878 C 238.696 335.661,239.133 335.765,239.801 336.111 C 240.469 336.456,241.016 336.833,241.016 336.947 C 241.016 337.062,240.796 337.044,240.527 336.908 C 240.259 336.772,240.386 336.941,240.809 337.284 C 241.233 337.627,241.813 337.818,242.099 337.708 C 242.420 337.585,242.512 337.682,242.339 337.961 C 242.151 338.266,242.278 338.330,242.730 338.157 C 243.181 337.983,243.309 338.047,243.120 338.352 C 242.933 338.655,243.057 338.722,243.495 338.554 C 244.434 338.193,246.697 338.688,246.028 339.108 C 245.729 339.294,246.424 339.362,247.656 339.267 C 249.385 339.132,249.538 339.163,248.438 339.420 C 247.403 339.663,247.925 339.738,250.586 339.729 C 253.587 339.718,253.816 339.675,252.148 339.437 C 250.441 339.192,250.555 339.169,253.056 339.248 C 254.923 339.308,255.737 339.212,255.400 338.973 C 255.055 338.728,255.313 338.680,256.172 338.828 C 256.881 338.951,257.365 338.896,257.248 338.707 C 256.954 338.231,258.057 337.863,258.887 338.160 C 259.263 338.295,259.441 338.263,259.283 338.089 C 258.989 337.765,260.059 336.753,260.719 336.731 C 260.921 336.724,260.746 336.977,260.329 337.292 C 259.912 337.608,259.696 337.871,259.850 337.878 C 260.004 337.885,260.681 337.351,261.355 336.692 C 262.029 336.033,262.821 335.586,263.114 335.699 C 263.407 335.811,263.768 335.708,263.915 335.469 C 264.077 335.207,264.005 335.145,263.732 335.314 C 263.484 335.468,263.281 335.499,263.281 335.385 C 263.281 335.270,263.828 334.894,264.496 334.548 C 265.386 334.088,265.630 334.059,265.409 334.440 C 265.243 334.727,265.566 334.478,266.128 333.887 C 267.106 332.859,267.860 332.430,267.410 333.159 C 267.292 333.349,267.502 333.736,267.875 334.019 C 268.438 334.445,268.476 334.444,268.097 334.016 C 267.521 333.365,267.829 332.524,268.843 331.981 C 269.469 331.647,269.561 331.668,269.306 332.090 C 269.130 332.380,269.528 332.090,270.191 331.445 C 271.496 330.174,275.694 327.709,275.205 328.500 C 274.971 328.878,275.088 328.887,275.734 328.541 C 276.190 328.297,276.563 328.005,276.563 327.893 C 276.563 327.780,276.360 327.814,276.112 327.967 C 275.838 328.136,275.766 328.075,275.929 327.812 C 276.076 327.573,276.416 327.462,276.684 327.565 C 276.952 327.668,277.517 327.471,277.941 327.128 C 278.364 326.785,278.447 326.621,278.125 326.763 C 277.803 326.905,277.934 326.698,278.417 326.303 C 279.749 325.215,283.358 323.261,283.017 323.813 C 282.783 324.191,282.901 324.199,283.558 323.847 C 284.019 323.600,284.305 323.250,284.193 323.068 C 284.081 322.887,284.261 322.634,284.593 322.506 C 284.939 322.374,285.095 322.440,284.958 322.661 C 284.487 323.424,285.214 323.026,286.215 321.973 C 286.777 321.382,287.099 321.136,286.931 321.426 C 286.683 321.852,286.783 321.868,287.453 321.510 C 288.321 321.045,288.641 320.475,287.793 320.904 C 287.524 321.040,287.656 320.862,288.086 320.507 C 289.161 319.620,291.157 318.595,290.854 319.086 C 290.718 319.306,291.402 319.042,292.374 318.499 C 293.345 317.956,294.141 317.428,294.141 317.326 C 294.141 317.225,293.938 317.267,293.690 317.420 C 293.410 317.593,293.345 317.527,293.518 317.247 C 293.707 316.942,294.023 316.915,294.490 317.165 C 295.000 317.438,295.182 317.391,295.182 316.988 C 295.182 316.687,295.036 316.531,294.857 316.642 C 294.678 316.752,294.531 316.749,294.531 316.635 C 294.531 316.520,295.078 316.144,295.746 315.798 C 296.636 315.338,296.880 315.309,296.659 315.690 C 296.493 315.977,296.816 315.728,297.378 315.137 C 298.405 314.057,299.104 313.691,298.609 314.492 C 298.422 314.794,298.589 314.790,299.172 314.478 C 299.627 314.235,300.000 313.943,300.000 313.830 C 300.000 313.718,299.797 313.751,299.549 313.904 C 299.267 314.079,299.204 314.011,299.381 313.726 C 299.536 313.474,299.851 313.385,300.081 313.526 C 300.310 313.668,300.841 313.363,301.259 312.849 C 301.678 312.335,301.897 312.151,301.745 312.441 C 301.522 312.866,301.629 312.883,302.297 312.525 C 302.752 312.281,303.125 311.990,303.125 311.877 C 303.125 311.765,302.949 311.781,302.734 311.914 C 302.520 312.047,302.344 312.063,302.344 311.951 C 302.344 311.838,302.717 311.547,303.172 311.303 C 303.808 310.962,303.933 310.968,303.711 311.328 C 303.489 311.688,303.614 311.694,304.250 311.353 C 304.705 311.110,305.078 310.818,305.078 310.705 C 305.078 310.593,304.902 310.609,304.688 310.742 C 304.473 310.875,304.297 310.892,304.297 310.779 C 304.297 310.666,304.670 310.375,305.125 310.131 C 305.795 309.772,305.895 309.788,305.647 310.215 C 305.479 310.505,305.801 310.259,306.363 309.668 C 307.390 308.588,308.088 308.223,307.593 309.023 C 307.406 309.325,307.574 309.321,308.156 309.010 C 309.024 308.545,309.344 307.975,308.496 308.404 C 308.228 308.540,308.359 308.362,308.789 308.007 C 309.951 307.048,311.859 306.098,311.519 306.647 C 311.302 306.999,311.430 307.004,312.053 306.671 C 312.504 306.429,313.048 305.905,313.261 305.506 C 313.475 305.106,313.928 304.673,314.267 304.543 C 314.678 304.385,314.801 304.468,314.635 304.790 C 314.498 305.056,314.767 304.834,315.234 304.297 C 315.701 303.760,315.961 303.555,315.811 303.841 C 315.610 304.226,315.854 304.198,316.754 303.733 C 317.422 303.388,317.969 303.011,317.969 302.897 C 317.969 302.782,317.793 302.797,317.578 302.930 C 317.363 303.062,317.188 303.079,317.188 302.966 C 317.188 302.854,317.560 302.562,318.016 302.319 C 318.521 302.048,318.747 302.032,318.595 302.278 C 318.459 302.499,318.569 302.809,318.841 302.965 C 319.113 303.122,319.207 303.108,319.049 302.933 C 318.891 302.759,319.067 302.366,319.440 302.060 C 319.812 301.755,319.897 301.616,319.629 301.752 C 319.360 301.888,319.141 301.915,319.141 301.813 C 319.141 301.412,321.882 299.958,322.232 300.174 C 322.435 300.300,322.729 300.198,322.885 299.946 C 323.061 299.660,322.998 299.593,322.717 299.767 C 322.469 299.921,322.266 299.954,322.266 299.841 C 322.266 299.729,322.638 299.437,323.094 299.194 C 323.730 298.853,323.855 298.859,323.633 299.219 C 323.416 299.569,323.527 299.586,324.074 299.286 C 324.924 298.820,326.606 297.478,325.879 297.846 C 325.031 298.275,325.351 297.705,326.219 297.240 C 326.890 296.881,326.988 296.897,326.734 297.324 C 326.562 297.614,327.200 297.050,328.152 296.071 C 329.119 295.076,329.366 294.903,328.711 295.680 L 327.539 297.070 328.974 295.754 C 329.762 295.029,330.322 294.212,330.216 293.938 C 330.111 293.663,330.240 293.306,330.502 293.143 C 330.828 292.942,330.879 293.011,330.664 293.359 C 330.453 293.700,330.500 293.776,330.805 293.588 C 331.057 293.433,331.164 293.145,331.043 292.950 C 330.747 292.472,331.593 290.940,332.010 291.198 C 332.191 291.310,332.446 291.125,332.576 290.786 C 332.939 289.841,332.847 289.584,332.379 290.234 C 332.029 290.721,331.997 290.698,332.191 290.100 C 332.320 289.704,332.531 288.959,332.661 288.443 C 332.790 287.927,333.009 287.575,333.147 287.661 C 333.285 287.746,333.398 268.426,333.398 244.727 C 333.398 221.027,333.253 201.840,333.076 202.088 C 332.898 202.338,332.849 201.841,332.966 200.977 C 333.082 200.117,333.077 199.646,332.954 199.929 C 332.821 200.233,332.347 199.618,331.795 198.426 C 331.281 197.316,330.950 196.264,331.059 196.087 C 331.168 195.910,330.685 195.294,329.984 194.718 C 329.284 194.142,328.958 193.804,329.260 193.966 C 329.614 194.157,329.713 194.108,329.540 193.827 C 329.393 193.589,329.047 193.480,328.771 193.586 C 328.496 193.691,327.931 193.379,327.514 192.892 C 327.032 192.327,326.977 192.145,327.362 192.390 C 327.695 192.601,327.607 192.443,327.167 192.038 C 326.727 191.634,326.415 191.137,326.475 190.935 C 326.534 190.733,326.393 190.684,326.163 190.826 C 325.873 191.005,325.900 191.286,326.251 191.734 C 326.941 192.617,325.595 191.630,324.315 190.314 C 323.822 189.807,323.234 189.533,322.979 189.691 C 322.684 189.873,322.602 189.766,322.748 189.387 C 322.880 189.044,322.752 188.802,322.441 188.802 C 322.149 188.802,322.009 188.963,322.130 189.160 C 322.252 189.357,321.805 189.235,321.137 188.889 C 320.469 188.544,319.922 188.167,319.922 188.053 C 319.922 187.938,320.098 187.953,320.313 188.086 C 320.527 188.219,320.703 188.243,320.703 188.141 C 320.703 187.819,317.888 186.198,317.329 186.198 C 317.036 186.198,316.797 186.058,316.797 185.886 C 316.797 185.715,316.424 185.375,315.968 185.131 C 315.332 184.791,315.207 184.796,315.430 185.156 C 315.652 185.516,315.527 185.522,314.891 185.181 C 314.023 184.717,313.703 184.147,314.551 184.576 C 314.819 184.712,314.734 184.573,314.362 184.268 C 313.989 183.962,313.813 183.569,313.971 183.395 C 314.129 183.221,314.035 183.206,313.763 183.363 C 313.491 183.520,313.388 183.855,313.534 184.109 C 313.680 184.363,313.340 184.087,312.778 183.496 C 312.216 182.905,311.616 182.427,311.444 182.434 C 311.273 182.441,311.474 182.705,311.891 183.020 C 312.308 183.336,312.484 183.590,312.282 183.585 C 312.079 183.580,311.475 183.213,310.938 182.770 C 310.400 182.326,310.151 182.059,310.384 182.175 C 310.617 182.292,310.807 182.169,310.807 181.902 C 310.807 181.636,310.498 181.417,310.120 181.417 C 309.742 181.417,309.529 181.573,309.646 181.763 C 309.764 181.954,309.508 181.921,309.077 181.690 C 308.647 181.460,308.185 180.985,308.050 180.634 C 307.913 180.276,307.557 180.093,307.236 180.216 C 306.922 180.336,306.545 180.239,306.397 180.001 C 306.250 179.762,306.303 179.674,306.515 179.805 C 306.727 179.936,306.901 179.797,306.901 179.496 C 306.901 179.074,306.726 179.042,306.138 179.357 C 305.590 179.650,305.449 179.644,305.640 179.336 C 305.786 179.100,305.719 178.906,305.492 178.906 C 304.729 178.906,304.495 178.792,303.975 178.164 C 303.567 177.671,303.511 177.663,303.711 178.125 C 303.850 178.447,303.687 178.370,303.349 177.953 C 303.011 177.536,302.734 177.316,302.734 177.464 C 302.734 177.613,302.376 177.376,301.939 176.939 C 301.501 176.501,300.947 176.265,300.707 176.413 C 300.441 176.577,300.379 176.506,300.549 176.232 C 300.702 175.984,300.631 175.781,300.391 175.781 C 300.150 175.781,300.073 175.588,300.219 175.352 C 300.395 175.067,300.189 175.080,299.609 175.391 C 299.128 175.648,298.836 175.694,298.960 175.493 C 299.247 175.028,296.319 173.353,295.893 173.738 C 295.720 173.895,295.688 173.829,295.824 173.592 C 295.959 173.355,295.679 172.984,295.203 172.767 C 294.407 172.405,294.328 172.482,294.237 173.710 M295.215 217.090 C 295.155 224.126,295.106 218.369,295.106 204.297 C 295.106 190.225,295.155 184.468,295.215 191.504 C 295.274 198.540,295.274 210.054,295.215 217.090 M333.736 211.133 C 333.737 213.281,333.803 214.110,333.882 212.975 C 333.961 211.840,333.961 210.082,333.880 209.069 C 333.800 208.056,333.735 208.984,333.736 211.133 M333.705 217.383 C 333.708 218.457,333.784 218.850,333.874 218.256 C 333.964 217.663,333.961 216.784,333.869 216.303 C 333.776 215.823,333.703 216.309,333.705 217.383 M333.768 233.398 C 333.768 240.273,333.821 243.031,333.886 239.526 C 333.951 236.021,333.951 230.396,333.886 227.026 C 333.821 223.656,333.768 226.523,333.768 233.398 M295.213 239.142 C 295.140 240.924,295.080 239.570,295.080 236.133 C 295.080 232.695,295.139 231.237,295.212 232.892 C 295.285 234.546,295.285 237.359,295.213 239.142 M333.760 254.492 C 333.761 259.219,333.817 261.099,333.886 258.670 C 333.954 256.241,333.954 252.374,333.885 250.076 C 333.816 247.778,333.760 249.766,333.760 254.492 M333.594 270.117 C 333.594 273.089,333.689 275.425,333.806 275.308 C 334.079 275.035,334.073 265.193,333.800 264.920 C 333.686 264.806,333.594 267.145,333.594 270.117 M333.736 281.055 C 333.737 283.203,333.803 284.032,333.882 282.897 C 333.961 281.762,333.961 280.004,333.880 278.991 C 333.800 277.978,333.735 278.906,333.736 281.055 M78.223 399.902 C 82.036 399.966,88.276 399.966,92.090 399.902 C 95.903 399.838,92.783 399.785,85.156 399.785 C 77.529 399.785,74.409 399.838,78.223 399.902 M100.684 399.885 C 101.167 399.978,101.958 399.978,102.441 399.885 C 102.925 399.792,102.529 399.716,101.563 399.716 C 100.596 399.716,100.200 399.792,100.684 399.885 M286.035 399.902 C 299.302 399.959,321.011 399.959,334.277 399.902 C 347.544 399.845,336.689 399.799,310.156 399.799 C 283.623 399.799,272.769 399.845,286.035 399.902 " stroke="none" fill="#15b366" fill-rule="evenodd"></path><path id="path3" d="M98.828 176.534 C 95.068 178.847,87.642 183.335,82.324 186.509 C 70.393 193.629,68.447 195.451,67.069 200.781 C 66.819 201.748,66.392 202.680,66.120 202.851 C 65.848 203.023,65.643 203.551,65.664 204.023 C 65.700 204.827,65.723 204.820,66.016 203.906 C 66.188 203.369,66.350 221.387,66.375 243.945 C 66.413 277.051,66.526 285.451,66.958 287.500 C 67.253 288.896,67.414 290.171,67.317 290.332 C 67.221 290.493,67.316 290.625,67.529 290.625 C 67.742 290.625,68.032 290.989,68.173 291.434 C 68.314 291.879,69.193 293.181,70.126 294.326 C 71.058 295.471,71.702 296.541,71.555 296.704 C 71.409 296.867,71.503 296.878,71.764 296.728 C 72.374 296.377,75.459 298.402,75.129 298.936 C 74.991 299.158,75.066 299.224,75.295 299.083 C 75.799 298.771,77.020 299.186,76.773 299.585 C 76.676 299.742,76.820 299.870,77.093 299.870 C 77.948 299.870,81.995 302.478,81.751 302.871 C 81.624 303.077,81.712 303.127,81.946 302.983 C 82.523 302.626,110.038 318.928,109.876 319.530 C 109.829 319.705,110.093 320.084,110.462 320.373 C 111.067 320.847,111.080 320.832,110.597 320.215 C 109.895 319.320,110.199 319.352,111.891 320.351 C 112.655 320.801,113.165 321.356,113.025 321.583 C 112.870 321.834,112.958 321.879,113.252 321.698 C 113.805 321.356,123.892 327.316,123.589 327.806 C 123.483 327.976,123.668 328.012,124.000 327.885 C 124.339 327.754,124.697 327.899,124.818 328.215 C 124.937 328.523,125.266 328.776,125.551 328.776 C 125.836 328.776,128.684 330.358,131.882 332.291 C 135.079 334.224,138.435 336.215,139.340 336.716 C 140.244 337.216,140.916 337.736,140.833 337.870 C 140.750 338.004,140.977 338.134,141.337 338.159 C 142.288 338.225,144.763 339.213,144.743 339.518 C 144.734 339.661,144.887 339.925,145.082 340.104 C 145.287 340.292,145.324 340.231,145.168 339.960 C 144.963 339.602,145.674 339.544,148.146 339.719 C 151.853 339.980,154.747 339.338,158.008 337.529 C 159.082 336.934,160.225 336.532,160.547 336.636 C 160.869 336.740,161.000 336.683,160.838 336.510 C 160.446 336.091,163.722 333.929,164.376 334.175 C 164.655 334.280,164.782 334.201,164.658 333.999 C 164.533 333.798,164.832 333.423,165.321 333.165 C 166.376 332.611,176.518 326.369,181.818 323.013 C 183.273 322.091,184.537 321.539,184.808 321.706 C 185.088 321.879,185.175 321.831,185.025 321.587 C 184.699 321.060,190.096 317.837,190.690 318.204 C 190.955 318.368,191.030 318.308,190.874 318.055 C 190.720 317.807,191.425 317.174,192.571 316.530 C 194.957 315.190,194.989 314.988,192.871 314.639 C 186.329 313.559,183.615 312.182,161.281 298.614 C 151.102 292.430,138.555 284.825,133.398 281.715 C 115.703 271.043,110.610 265.185,106.508 250.793 C 105.676 247.876,105.669 247.532,105.667 210.059 C 105.665 189.272,105.664 172.280,105.664 172.298 C 105.664 172.315,102.588 174.222,98.828 176.534 M65.768 208.789 C 65.769 210.938,65.834 211.767,65.913 210.631 C 65.993 209.496,65.992 207.738,65.912 206.725 C 65.831 205.712,65.767 206.641,65.768 208.789 M65.789 222.070 C 65.789 226.367,65.846 228.178,65.916 226.095 C 65.986 224.012,65.986 220.496,65.917 218.282 C 65.847 216.069,65.789 217.773,65.789 222.070 M65.803 245.508 C 65.803 254.102,65.855 257.562,65.918 253.197 C 65.980 248.832,65.980 241.800,65.917 237.572 C 65.854 233.343,65.803 236.914,65.803 245.508 M65.724 262.695 C 65.728 263.555,65.808 263.860,65.901 263.374 C 65.995 262.888,65.991 262.185,65.893 261.812 C 65.796 261.438,65.719 261.836,65.724 262.695 M65.759 267.383 C 65.760 269.102,65.829 269.756,65.912 268.837 C 65.994 267.919,65.993 266.512,65.909 265.712 C 65.825 264.912,65.757 265.664,65.759 267.383 M65.783 276.758 C 65.784 280.195,65.843 281.549,65.916 279.767 C 65.988 277.984,65.988 275.171,65.915 273.517 C 65.842 271.862,65.783 273.320,65.783 276.758 M148.926 340.504 C 149.302 340.602,149.917 340.602,150.293 340.504 C 150.669 340.405,150.361 340.325,149.609 340.325 C 148.857 340.325,148.550 340.405,148.926 340.504 M110.254 399.879 C 110.630 399.977,111.245 399.977,111.621 399.879 C 111.997 399.780,111.689 399.700,110.938 399.700 C 110.186 399.700,109.878 399.780,110.254 399.879 M117.676 399.889 C 118.267 399.979,119.233 399.979,119.824 399.889 C 120.415 399.800,119.932 399.726,118.750 399.726 C 117.568 399.726,117.085 399.800,117.676 399.889 M122.754 399.896 C 123.774 399.977,125.444 399.977,126.465 399.896 C 127.485 399.816,126.650 399.750,124.609 399.750 C 122.568 399.750,121.733 399.816,122.754 399.896 M131.744 399.890 C 132.337 399.979,133.216 399.977,133.697 399.884 C 134.177 399.792,133.691 399.718,132.617 399.721 C 131.543 399.724,131.150 399.800,131.744 399.890 M135.847 399.892 C 136.549 399.979,137.604 399.978,138.191 399.888 C 138.778 399.799,138.203 399.728,136.914 399.730 C 135.625 399.733,135.145 399.806,135.847 399.892 " stroke="none" fill="#1b92fb" fill-rule="evenodd"></path><path id="path4" d="M0.000 200.000 L 0.000 400.000 25.488 399.905 L 50.977 399.810 25.684 399.707 L 0.391 399.604 0.391 199.997 L 0.391 0.391 200.001 0.391 L 399.611 0.391 399.609 199.996 L 399.606 399.601 382.909 399.707 L 366.211 399.813 383.105 399.907 L 400.000 400.000 400.000 200.000 L 400.000 0.000 200.000 0.000 L 0.000 0.000 0.000 200.000 M192.641 107.615 C 187.111 108.672,181.935 110.710,176.712 113.886 C 158.910 124.715,147.725 131.341,133.594 139.433 C 115.409 149.845,110.542 155.044,106.697 168.164 L 105.553 172.070 105.611 209.961 C 105.669 247.448,105.678 247.883,106.508 250.793 C 110.609 265.184,115.703 271.043,133.398 281.715 C 138.555 284.825,151.102 292.430,161.281 298.614 C 184.345 312.626,185.144 313.025,193.750 314.833 C 203.920 316.970,211.488 315.031,226.346 306.484 C 233.221 302.529,232.301 302.685,233.990 305.190 C 237.660 310.632,239.332 310.996,260.018 310.856 L 276.758 310.742 279.147 309.638 C 283.858 307.461,286.479 303.528,286.479 298.633 C 286.479 295.233,286.017 294.164,280.799 285.485 L 276.843 278.903 279.938 275.877 C 286.702 269.265,290.605 262.516,293.301 252.768 L 294.336 249.023 294.336 210.938 L 294.336 172.852 293.263 169.266 C 292.674 167.293,292.295 165.360,292.421 164.969 C 292.587 164.457,292.549 164.401,292.285 164.768 C 292.019 165.139,291.685 164.715,291.061 163.213 C 287.334 154.245,280.393 147.671,265.039 138.565 C 260.527 135.889,248.368 128.597,238.018 122.359 C 219.355 111.110,216.019 109.370,210.451 107.972 C 207.016 107.110,196.398 106.897,192.641 107.615 M208.594 118.972 C 212.063 119.866,215.801 121.635,220.898 124.797 C 228.231 129.345,257.291 146.939,263.867 150.811 C 276.079 158.003,282.207 166.004,283.590 176.563 C 284.520 183.664,283.919 246.527,282.887 250.195 C 280.173 259.833,273.988 268.101,265.707 273.161 C 263.918 274.254,262.388 275.255,262.308 275.385 C 262.228 275.515,265.049 280.448,268.577 286.346 C 275.125 297.291,275.763 298.783,274.244 299.596 C 272.900 300.315,245.285 300.132,244.235 299.397 C 243.761 299.065,241.870 296.362,240.031 293.390 L 236.687 287.986 229.769 291.964 C 210.997 302.757,209.258 303.505,202.235 303.806 C 192.360 304.229,192.656 304.365,157.862 283.518 C 121.965 262.011,121.599 261.711,117.697 250.586 L 116.602 247.461 116.489 210.938 C 116.364 170.171,116.297 171.350,119.055 165.625 C 121.485 160.579,125.151 157.331,134.570 151.880 C 151.826 141.894,154.847 140.118,163.672 134.770 C 189.395 119.184,187.835 120.017,193.750 118.706 C 197.741 117.821,204.602 117.944,208.594 118.972 M198.613 149.562 C 196.810 149.875,195.026 150.841,174.023 162.869 C 151.837 175.576,149.196 177.826,146.282 186.506 L 145.284 189.480 145.396 213.608 L 145.508 237.737 146.984 240.722 C 149.255 245.317,147.520 244.116,177.204 261.657 C 198.351 274.155,199.077 274.433,203.906 271.917 C 206.455 270.589,220.313 262.460,220.313 262.292 C 220.313 262.215,219.020 259.988,217.440 257.345 C 199.457 227.261,199.631 227.596,201.537 226.576 C 202.897 225.848,229.717 226.041,230.782 226.786 C 231.777 227.483,234.345 231.263,240.251 240.721 C 245.143 248.555,244.906 248.455,248.774 244.313 C 254.754 237.909,254.688 238.263,254.688 212.959 C 254.688 179.236,254.921 179.769,234.961 167.884 C 201.316 147.850,203.152 148.776,198.613 149.562 M54.199 399.892 C 54.897 399.979,56.040 399.979,56.738 399.892 C 57.437 399.805,56.865 399.734,55.469 399.734 C 54.072 399.734,53.501 399.805,54.199 399.892 M59.082 399.879 C 59.458 399.977,60.073 399.977,60.449 399.879 C 60.825 399.780,60.518 399.700,59.766 399.700 C 59.014 399.700,58.706 399.780,59.082 399.879 M144.053 399.896 C 144.972 399.978,146.378 399.977,147.178 399.893 C 147.978 399.809,147.227 399.742,145.508 399.743 C 143.789 399.745,143.135 399.813,144.053 399.896 M155.572 399.890 C 156.166 399.979,157.044 399.977,157.525 399.884 C 158.005 399.792,157.520 399.718,156.445 399.721 C 155.371 399.724,154.978 399.800,155.572 399.890 M159.473 399.889 C 160.063 399.979,161.030 399.979,161.621 399.889 C 162.212 399.800,161.729 399.726,160.547 399.726 C 159.365 399.726,158.882 399.800,159.473 399.889 M184.443 399.902 C 195.974 399.960,214.958 399.960,226.630 399.902 C 238.302 399.845,228.867 399.798,205.664 399.798 C 182.461 399.798,172.911 399.845,184.443 399.902 M248.926 399.879 C 249.302 399.977,249.917 399.977,250.293 399.879 C 250.669 399.780,250.361 399.700,249.609 399.700 C 248.857 399.700,248.550 399.780,248.926 399.879 M251.855 399.885 C 252.339 399.978,253.130 399.978,253.613 399.885 C 254.097 399.792,253.701 399.716,252.734 399.716 C 251.768 399.716,251.372 399.792,251.855 399.885 " stroke="none" fill="#fbfbfb" fill-rule="evenodd"></path></g></svg>