<?xml version="1.0" encoding="UTF-8"?>
<svg version="1.1" xmlns="http://www.w3.org/2000/svg" width="1536" height="1024">
<path d="M0 0 C2.74491316 1.63389017 5.52193156 3.20402115 8.30419922 4.7734375 C15.04196539 8.59385728 21.72827372 12.49841362 28.40185547 16.4296875 C28.97188293 16.76538757 29.5419104 17.10108765 30.12921143 17.44696045 C34.05997094 19.7636111 37.98279571 22.09330799 41.90185547 24.4296875 C43.41283813 25.32699585 43.41283813 25.32699585 44.9543457 26.24243164 C68.03717545 40.09212949 68.03717545 40.09212949 71.79519653 53.30154419 C73.08046298 59.92882253 72.85196585 66.69977094 72.83544922 73.42578125 C72.84002056 75.06665765 72.84532893 76.70753215 72.85133362 78.34840393 C72.86022531 81.77344583 72.85788677 85.19825407 72.84790039 88.62329102 C72.83641374 92.98516839 72.85663732 97.34623577 72.88581753 101.70800686 C72.90427353 105.09264643 72.90386852 108.47709521 72.89818001 111.86177254 C72.89802795 113.46873168 72.90397539 115.07570472 72.91647148 116.68261528 C73.00179029 129.44943154 71.60986665 140.797344 62.40185547 150.4296875 C57.51344365 154.70958332 51.95758328 158.09034046 46.40185547 161.4296875 C50.44808428 168.47676686 54.595411 175.36518172 59.21435547 182.0546875 C60.6072327 184.84044197 60.28906819 185.56887913 59.40185547 188.4296875 C54.68837809 188.70303784 49.97956108 188.90178234 45.26000977 189.03393555 C43.65795535 189.08903394 42.05644882 189.16394855 40.45629883 189.25952148 C35.25056617 189.56250063 30.49681324 189.64742932 25.40185547 188.4296875 C21.8981433 185.22273608 19.98893822 181.88457519 18.40185547 177.4296875 C18.40185547 176.7696875 18.40185547 176.1096875 18.40185547 175.4296875 C17.75224854 175.80254883 17.1026416 176.17541016 16.43334961 176.55957031 C13.44622213 178.27074904 10.4553339 179.97524952 7.46435547 181.6796875 C5.93198242 182.55947266 5.93198242 182.55947266 4.36865234 183.45703125 C-9.03496909 191.07953801 -19.48344276 195.71333817 -35.17236328 191.78515625 C-43.41381085 188.72084892 -51.01934618 183.84079683 -58.59814453 179.4296875 C-59.4834082 178.91583496 -60.36867188 178.40198242 -61.28076172 177.87255859 C-66.27522678 174.97185433 -71.26341578 172.06069444 -76.24658203 169.140625 C-80.57452783 166.60624232 -84.91382192 164.09289499 -89.26220703 161.59375 C-90.344375 160.96944092 -91.42654297 160.34513184 -92.54150391 159.7019043 C-94.61053865 158.50877998 -96.68203056 157.31990314 -98.75634766 156.13598633 C-111.57801479 148.72222421 -111.57801479 148.72222421 -115.34814453 142.6796875 C-115.73486328 142.08671875 -116.12158203 141.49375 -116.52001953 140.8828125 C-120.48614973 131.8584293 -119.90845508 122.10229576 -119.89892578 112.4609375 C-119.90282013 110.81384169 -119.9071563 109.16674687 -119.91191101 107.51965332 C-119.91934064 104.08028902 -119.91910515 100.64102745 -119.91381836 97.20166016 C-119.90801971 92.81391554 -119.92498001 88.4265925 -119.94816303 84.03891754 C-119.9629554 80.64151591 -119.96376476 77.24421463 -119.96065331 73.8467865 C-119.96116348 72.22980411 -119.96634356 70.61281566 -119.97646523 68.99586487 C-120.08919294 48.47691379 -120.08919294 48.47691379 -113.41064453 41.1796875 C-112.88083984 40.57640625 -112.35103516 39.973125 -111.80517578 39.3515625 C-106.26111626 34.52381509 -99.45184409 31.14079913 -93.09814453 27.4921875 C-91.41821986 26.52384883 -89.73854443 25.5550777 -88.05908203 24.5859375 C-87.17446289 24.07546875 -86.28984375 23.565 -85.37841797 23.0390625 C-81.4981641 20.7929584 -77.62798481 18.52977609 -73.7578125 16.26635742 C-68.70837976 13.31428761 -63.65328196 10.3719738 -58.59814453 7.4296875 C-57.60234375 6.84880371 -56.60654297 6.26791992 -55.58056641 5.66943359 C-52.71481326 4.00025973 -49.84468343 2.33888349 -46.97314453 0.6796875 C-45.68561279 -0.07235962 -45.68561279 -0.07235962 -44.37207031 -0.83959961 C-29.14735664 -9.59846002 -14.76297179 -8.82369154 0 0 Z M-58.47314453 44.5546875 C-59.3402002 45.04509521 -60.20725586 45.53550293 -61.10058594 46.04077148 C-75.31359172 53.71136709 -75.31359172 53.71136709 -84.59814453 66.4296875 C-84.91260774 69.00461882 -84.91260774 69.00461882 -84.88867188 71.8215332 C-84.90143158 72.89977859 -84.91419128 73.97802399 -84.92733765 75.08894348 C-84.92956329 76.24939682 -84.93178894 77.40985016 -84.93408203 78.60546875 C-84.94073883 79.80398972 -84.94739563 81.00251068 -84.95425415 82.23735046 C-84.96437971 84.77337103 -84.9690712 87.30941823 -84.96875 89.84545898 C-84.97311622 93.71708359 -85.00942024 97.58756198 -85.04736328 101.45898438 C-85.05323285 103.92447527 -85.05720131 106.38997158 -85.05908203 108.85546875 C-85.07345306 110.0098494 -85.0878241 111.16423004 -85.10263062 112.35359192 C-85.06535883 118.94206608 -84.58615724 123.10046406 -80.59814453 128.4296875 C-78.03604263 130.68869412 -78.03604263 130.68869412 -74.91064453 132.4921875 C-74.32831055 132.85159424 -73.74597656 133.21100098 -73.14599609 133.58129883 C-64.76490783 138.6710158 -56.13212306 143.35643966 -47.55126953 148.09765625 C-42.8433941 150.70494279 -38.22561598 153.42979391 -33.64794922 156.2590332 C-28.83406462 159.00826815 -23.9936113 159.11740185 -18.59814453 158.4296875 C-15.14746585 157.13079869 -12.10681582 155.35890277 -8.97314453 153.4296875 C-8.15974609 152.95273437 -7.34634766 152.47578125 -6.50830078 151.984375 C-4.52594018 150.81828053 -2.55751219 149.63387554 -0.59814453 148.4296875 C-2.20437624 143.84045406 -4.62063966 139.99879193 -7.22314453 135.9296875 C-8.1217729 134.50532874 -9.02020759 133.08084776 -9.91845703 131.65625 C-11.21596367 129.60799651 -12.51486486 127.56065095 -13.81591797 125.51464844 C-14.91562252 123.78146921 -16.00749227 122.04357214 -17.09814453 120.3046875 C-17.72720703 119.31210937 -18.35626953 118.31953125 -19.00439453 117.296875 C-20.6188046 114.39251964 -21.59044543 111.58667107 -22.59814453 108.4296875 C5.91995371 106.96878432 5.91995371 106.96878432 12.96386719 110.83642578 C16.53976862 114.1315405 18.6265939 118.01645948 20.48974609 122.46191406 C22.02370136 125.7712501 24.21279984 128.52352744 26.40185547 131.4296875 C29.90100284 130.6825418 31.2979213 129.84682065 33.58935547 127.0546875 C34.09853516 126.44882812 34.60771484 125.84296875 35.13232422 125.21875 C37.43130885 121.97895012 37.53808604 119.1046189 37.57885742 115.2590332 C37.59169266 114.20396072 37.60452789 113.14888824 37.61775208 112.06184387 C37.62513901 110.92124008 37.63252594 109.78063629 37.64013672 108.60546875 C37.65224434 106.84241646 37.65224434 106.84241646 37.66459656 105.04374695 C37.67843672 102.55302403 37.68915917 100.06228216 37.69702148 97.5715332 C37.71420905 93.7745331 37.75809475 89.97840932 37.80224609 86.18164062 C37.81237537 83.76042306 37.82089074 81.3391981 37.82763672 78.91796875 C37.85389885 77.2222448 37.85389885 77.2222448 37.88069153 75.49226379 C37.86060591 68.14041005 36.98498927 62.38598476 31.92878723 56.8032074 C26.50587385 51.5764831 19.43242464 48.20239377 12.90185547 44.5546875 C11.6376155 43.84330396 10.37353744 43.13163261 9.10961914 42.41967773 C6.64528952 41.03385444 4.17790507 39.65370538 1.70800781 38.27783203 C-1.02331998 36.75101536 -3.74143508 35.20493817 -6.45361328 33.64453125 C-26.65666696 22.17467988 -40.16749353 34.15690958 -58.47314453 44.5546875 Z " fill="#282827" transform="translate(405.59814453125,409.5703125)"/>
<path d="M0 0 C7.38281691 2.90234758 14.12668036 6.74969849 20.96313477 10.74462891 C22.19813902 11.45972526 23.43357903 12.1740695 24.66943359 12.88769531 C26.55128277 13.97443376 28.43286446 15.06160293 30.31303406 16.15124512 C36.16886723 19.54399382 42.06312613 22.86688119 47.96313477 26.18212891 C56.03603555 30.73078039 64.05545798 35.35946955 72.02172852 40.09228516 C74.43599903 41.52504452 76.86263298 42.9291931 79.31079102 44.30322266 C86.87580349 48.57750066 92.23101421 52.10447451 95.77563477 60.30712891 C96.13639832 63.3444519 96.13639832 63.3444519 96.11621094 66.58789062 C96.11598434 67.80870331 96.11575775 69.02951599 96.11552429 70.287323 C96.10004044 71.59065582 96.08455658 72.89398865 96.06860352 74.23681641 C96.0630018 75.59587128 96.05873442 76.95493224 96.05574036 78.31399536 C96.04433671 81.87496946 96.01490905 85.43557106 95.98162842 88.99639893 C95.9508302 92.63638268 95.93721429 96.27642716 95.92211914 99.91650391 C95.89003432 107.04686376 95.83889302 114.1769719 95.77563477 121.30712891 C93.30176673 118.87285494 90.95149083 116.5386311 88.84985352 113.77197266 C86.42058795 110.88521828 83.72071765 108.90776753 80.58813477 106.86962891 C79.9486792 106.44842773 79.30922363 106.02722656 78.65039062 105.59326172 C70.45651955 100.30836189 61.87651288 95.68270019 53.34594727 90.97119141 C46.90162373 87.40205701 40.55568598 83.67818399 34.21313477 79.93212891 C27.44127827 75.95472776 20.65603124 72.0483192 13.65063477 68.49462891 C13.02987061 68.17510254 12.40910645 67.85557617 11.76953125 67.52636719 C2.7994525 63.10321198 -9.42362943 62.76750754 -19.09936523 65.24462891 C-32.64384271 70.04209622 -45.22292513 78.51533643 -57.56274414 85.74902344 C-60.45052806 87.43952398 -63.34292239 89.12194315 -66.23608398 90.80322266 C-71.32787154 93.76318354 -76.41356398 96.73337216 -81.49536133 99.71044922 C-83.20774984 100.71232978 -84.92142455 101.71201865 -86.63696289 102.70849609 C-94.98642367 107.55848241 -102.37224129 112.41469835 -109.22436523 119.30712891 C-109.29401808 111.71817981 -109.34725389 104.12926407 -109.37980175 96.54006767 C-109.39542686 93.01569159 -109.41660667 89.49153496 -109.45068359 85.96728516 C-109.48965475 81.9112747 -109.50410046 77.85549311 -109.51733398 73.79931641 C-109.53281784 72.53973114 -109.5483017 71.28014587 -109.56425476 69.98239136 C-109.56448135 68.80162018 -109.56470795 67.620849 -109.56494141 66.40429688 C-109.57160324 65.36949188 -109.57826508 64.33468689 -109.58512878 63.26852417 C-108.86052483 57.3204767 -105.98082829 53.52295406 -101.4777832 49.89697266 C-96.6447418 46.48713889 -91.44981376 43.67917638 -86.28686523 40.80712891 C-84.40528913 39.74898587 -82.52532444 38.68801854 -80.64544678 37.62686157 C-79.37058179 36.907394 -78.09522979 36.18878873 -76.81939697 35.47103882 C-70.7049688 32.02790847 -64.64953588 28.48679497 -58.59936523 24.93212891 C-50.96584393 20.45989538 -43.30918136 16.04100584 -35.54199219 11.80419922 C-31.95569726 9.84632261 -28.42532982 7.83868526 -24.94702148 5.69384766 C-16.63111274 0.62274737 -9.85218047 -3.06887149 0 0 Z " fill="#E51721" transform="translate(389.224365234375,326.69287109375)"/>
<path d="M0 0 C0.66 0.33 1.32 0.66 2 1 C1.99333817 1.93801453 1.98667633 2.87602905 1.97981262 3.84246826 C1.91872327 12.72724348 1.87389473 21.61197551 1.84456348 30.49691391 C1.82897655 35.06362482 1.80786733 39.63016478 1.77368164 44.19677734 C1.74083737 48.61235459 1.7230947 53.02776848 1.71536827 57.44345856 C1.70986938 59.11938291 1.69913278 60.79529938 1.68280983 62.47115326 C1.53798261 77.97142656 2.98395637 91.55559551 14.0546875 103.3984375 C18.32723972 107.57271203 23.20066204 110.38830518 28.375 113.3125 C29.35178711 113.87662598 30.32857422 114.44075195 31.33496094 115.02197266 C33.30853792 116.16176663 35.28441818 117.29758268 37.26269531 118.42919922 C40.28860563 120.16561618 43.29326835 121.93515763 46.29370117 123.71508789 C53.77205768 128.14909161 61.29448404 132.50884976 68.81848145 136.86480713 C70.51880944 137.84969299 72.21791738 138.83668424 73.91699219 139.82373047 C85.18576366 146.50516045 85.18576366 146.50516045 97.5 150.75 C99.06234375 151.11351562 99.06234375 151.11351562 100.65625 151.484375 C101.4296875 151.65453125 102.203125 151.8246875 103 152 C103 152.66 103 153.32 103 154 C100.75390625 155.59375 100.75390625 155.59375 97.5625 157.5 C96.69709595 158.01904907 96.69709595 158.01904907 95.81420898 158.54858398 C94.55136198 159.30388644 93.28635799 160.05559093 92.01953125 160.80419922 C89.95448375 162.02695099 87.89881285 163.26445843 85.84375 164.50390625 C58.60118693 180.85256824 58.60118693 180.85256824 49 180 C42.04474193 177.90057491 35.88233698 174.37846977 29.75 170.5625 C27.98354651 169.48359921 26.2166023 168.40550155 24.44921875 167.328125 C23.5473584 166.77576172 22.64549805 166.22339844 21.71630859 165.65429688 C17.35616453 162.9988649 12.96027604 160.40497118 8.5625 157.8125 C7.67498047 157.287771 6.78746094 156.76304199 5.87304688 156.22241211 C1.07564933 153.38937932 -3.73029686 150.57163529 -8.54750061 147.77244568 C-11.14357651 146.26369636 -13.73790475 144.75195277 -16.33230591 143.24032593 C-17.59052198 142.50855071 -18.8496685 141.77837246 -20.10983276 141.04995728 C-24.10019344 138.7433451 -28.05989121 136.39194912 -32 134 C-32.97001953 133.4234668 -33.94003906 132.84693359 -34.93945312 132.25292969 C-36.26106445 131.4122998 -36.26106445 131.4122998 -37.609375 130.5546875 C-38.74584473 129.84675049 -38.74584473 129.84675049 -39.90527344 129.12451172 C-47.97880122 120.93618552 -46.5689027 109.65960263 -46.49609375 98.9921875 C-46.49624893 97.13851871 -46.49774109 95.2848496 -46.50050354 93.43118286 C-46.50188312 89.55960626 -46.48940117 85.68840211 -46.46655273 81.81689453 C-46.43812964 76.86618293 -46.44092216 71.91608763 -46.45364285 66.96533012 C-46.46061164 63.14249447 -46.45279768 59.31980017 -46.44038582 55.49698257 C-46.4358858 53.67182076 -46.43552179 51.8466437 -46.43945122 50.02148056 C-46.4423763 47.46827024 -46.42579655 44.91589719 -46.40405273 42.36279297 C-46.40855438 41.61663727 -46.41305603 40.87048157 -46.41769409 40.10171509 C-46.32817741 33.74443791 -44.87216021 29.21167113 -40.73828125 24.328125 C-37.73115386 21.77142325 -34.594809 19.71378529 -31.1875 17.75 C-30.54167969 17.37012939 -29.89585937 16.99025879 -29.23046875 16.59887695 C-22.48361819 12.65050972 -15.67004683 8.81368073 -8.828125 5.03271484 C-7.55587378 4.31401524 -6.29612188 3.57292195 -5.046875 2.81494141 C-3.3969524 1.82081191 -1.70134239 0.90331174 0 0 Z " fill="#0274DA" transform="translate(272,462)"/>
<path d="M0 0 C2.23544377 1.10977164 4.47000573 2.2212609 6.70410156 3.33374023 C7.33216705 3.64531822 7.96023254 3.95689621 8.60733032 4.27791595 C13.44288866 6.68828832 18.12632799 9.2717735 22.75 12.0625 C23.46244873 12.48805176 24.17489746 12.91360352 24.90893555 13.35205078 C26.30740401 14.1877965 27.70484142 15.02527072 29.10107422 15.86474609 C30.77909091 16.86793169 32.46879937 17.85150421 34.16015625 18.83203125 C35.03542969 19.34121094 35.91070313 19.85039062 36.8125 20.375 C37.54082031 20.79523438 38.26914062 21.21546875 39.01953125 21.6484375 C43.4980261 24.70476732 45.9373593 27.99487422 48 33 C48.42073033 35.92289578 48.42062389 38.80647201 48.40405273 41.75585938 C48.41091599 42.61516556 48.41777924 43.47447174 48.42485046 44.3598175 C48.44308691 47.18796513 48.43928592 50.01555644 48.43359375 52.84375 C48.43815665 54.81620463 48.44346255 56.78865767 48.44947815 58.7611084 C48.45840274 62.89012115 48.45599302 67.0189404 48.44604492 71.14794922 C48.43454867 76.43408702 48.45478023 81.71955746 48.48396206 87.0056076 C48.50232317 91.07717109 48.50203189 95.14857456 48.49632454 99.22016907 C48.49617135 101.16898028 48.50221339 103.11780235 48.51461601 105.0665741 C48.52952468 107.79285374 48.51885054 110.51789912 48.50170898 113.24414062 C48.51621094 114.44596733 48.51621094 114.44596733 48.53100586 115.67207336 C48.4516779 121.70940626 46.5863931 125.16291044 42.47363281 129.67431641 C37.34773632 134.06441465 31.67144172 137.17861716 25.75 140.375 C23.50230746 141.6103768 21.25626854 142.84876607 19.01171875 144.08984375 C18.4347374 144.40858963 17.85775604 144.72733551 17.26329041 145.05574036 C10.95405641 148.55512619 4.75701673 152.23955029 -1.4375 155.9375 C-10.69199071 161.44497178 -19.94948112 166.94558263 -29.25 172.375 C-30.86539673 173.33007446 -30.86539673 173.33007446 -32.51342773 174.30444336 C-39.66091542 178.45924442 -45.91039011 181.97546066 -54.37890625 180.71875 C-64.83184686 177.85236986 -74.54162359 171.02862656 -83.77734375 165.51171875 C-87.84432699 163.08278689 -91.94549085 160.71793121 -96.0625 158.375 C-97.20847656 157.72273437 -98.35445313 157.07046875 -99.53515625 156.3984375 C-100.34855469 155.93695312 -101.16195313 155.47546875 -102 155 C-99.24677929 153.16451952 -97.95663384 152.66227451 -94.875 151.9375 C-86.70649134 149.62795142 -79.38597471 145.0871345 -72 141 C-71.1646875 142.1446875 -71.1646875 142.1446875 -70.3125 143.3125 C-67.59778027 146.46744455 -65.31992664 148.66768638 -61.05743408 149.27825928 C-58.70226609 149.39669832 -56.36590953 149.41574922 -54.0078125 149.3984375 C-53.14364716 149.40130768 -52.27948181 149.40417786 -51.38912964 149.40713501 C-49.5652399 149.40917173 -47.74132812 149.40366934 -45.91748047 149.39111328 C-43.14109818 149.37509289 -40.3661802 149.39095477 -37.58984375 149.41015625 C-35.81249681 149.40817298 -34.03515078 149.40432758 -32.2578125 149.3984375 C-31.02310715 149.40754654 -31.02310715 149.40754654 -29.76345825 149.4168396 C-23.40822795 149.34019976 -18.61573807 148.2027268 -13.625 144 C-11.24296213 141.06826109 -10.48759879 137.99708823 -10.51171875 134.234375 C-11.82045982 128.24557586 -16.0246409 122.56081621 -19.7265625 117.76171875 C-21 116 -21 116 -21.0625 114 C-19.75404597 111.53702771 -18.07032689 110.7410348 -15.74609375 109.30859375 C-7.4204125 103.06898923 -2.35371416 92.22165262 -0.42189026 82.25346375 C0.50161944 75.13169393 0.24035543 67.91116412 0.1953125 60.7421875 C0.19157594 58.985282 0.18873201 57.2283744 0.18673706 55.47146606 C0.17915122 50.87823595 0.1595469 46.2851351 0.1373291 41.69195557 C0.11676109 36.99257149 0.10771206 32.29316625 0.09765625 27.59375 C0.07629559 18.39577697 0.04222162 9.19789929 0 0 Z " fill="#34B42D" transform="translate(490,461)"/>
<path d="M0 0 C9.77798718 7.12257907 15.54563702 17.19397908 17.76171875 29.01171875 C19.28302022 42.94019078 17.01042144 55.47880808 8.54296875 66.890625 C6.72231231 69.05864352 4.79602376 71.04433167 2.76171875 73.01171875 C3.52355469 73.66527344 3.52355469 73.66527344 4.30078125 74.33203125 C8.62931757 78.0769447 12.76478819 81.91486493 16.76171875 86.01171875 C15.43749085 89.98440245 13.6015531 90.86291068 10.0703125 92.90234375 C6.22474551 94.75029811 3.02254456 95.99942287 -1.23828125 95.01171875 C-5.46045771 91.90028919 -8.89715793 88.11565031 -11.71484375 83.6953125 C-13.0960507 81.78305798 -13.0960507 81.78305798 -15.33203125 81.83984375 C-16.12609375 81.9790625 -16.92015625 82.11828125 -17.73828125 82.26171875 C-32.42264926 84.30476126 -45.18294606 82.25230081 -57.359375 73.484375 C-65.74691685 66.74580168 -70.75630426 57.15215335 -72.92578125 46.69921875 C-74.20855857 31.56244635 -72.15030742 18.48493015 -62.19921875 6.5703125 C-45.85315404 -10.9598311 -19.83901684 -12.3702105 0 0 Z M-45.66796875 16.13671875 C-51.70872432 23.34956122 -53.87113794 31.7520261 -53.23828125 41.01171875 C-52.12408635 50.11628278 -48.25806824 57.09885349 -41.0546875 62.82421875 C-35.33493361 66.56358474 -28.54952575 66.8437133 -22.01171875 65.58203125 C-15.14872762 63.67171413 -9.59945983 59.93564269 -5.88671875 53.765625 C-1.48567097 44.37777847 -0.78641941 33.83368312 -4.23828125 24.01171875 C-7.6077206 17.01013799 -11.98420264 12.83765546 -19.23828125 10.01171875 C-28.99857227 7.70124015 -38.20621388 9.19555143 -45.66796875 16.13671875 Z " fill="#0473D8" transform="translate(634.23828125,444.98828125)"/>
<path d="M0 0 C0.99 0.99 0.99 0.99 2 2 C1.68346697 5.73346654 -0.41631773 8.28436631 -2.5625 11.25 C-3.20316406 12.14203125 -3.84382813 13.0340625 -4.50390625 13.953125 C-4.99761719 14.62859375 -5.49132813 15.3040625 -6 16 C-9.4092697 14.70036705 -12.55235181 13.18784664 -15.75 11.4375 C-23.7208888 7.44615124 -30.55778616 7.32983009 -39 10 C-45.70037439 12.49621791 -49.47581655 16.99858661 -52.6484375 23.24609375 C-55.4441403 31.01103709 -55.19941372 40.74019892 -52.5 48.5625 C-49.39541183 55.03311534 -44.3138141 59.35184938 -37.6875 62 C-28.82272486 64.45228316 -19.99185933 62.13126418 -12 58 C-10.64393419 57.03105041 -9.30318388 56.03898487 -8 55 C-4.94240074 56.34640488 -2.99224357 57.78534229 -0.8125 60.3125 C-0.30332031 60.88613281 0.20585938 61.45976562 0.73046875 62.05078125 C2.2258042 64.34669629 2.61534686 66.307428 3 69 C-8.97309509 78.43013684 -21.84341648 81.99447814 -37 81 C-49.23341355 79.15639489 -60.28393942 73.86038721 -68 64 C-75.97595104 51.48421259 -77.72118687 37.7297918 -74.875 23.3125 C-72.04846362 12.40075489 -65.79472777 3.61706463 -56.46484375 -2.72265625 C-37.99564262 -13.53843302 -17.40398006 -12.35576678 0 0 Z " fill="#2C2C2C" transform="translate(1058,447)"/>
<path d="M0 0 C5.94 0 11.88 0 18 0 C18.33 10.89 18.66 21.78 19 33 C20.65 31.35 22.3 29.7 24 28 C29.40692909 23.86180208 35.06633939 23.32990128 41.73828125 23.546875 C48.01067746 24.4182498 52.87051446 26.97971885 57.4375 31.3125 C61.70566588 38.65374531 62.42380922 44.7241115 62.29296875 53.0625 C62.28872391 54.09439453 62.28447906 55.12628906 62.28010559 56.18945312 C62.26341801 59.45990967 62.22578395 62.72973217 62.1875 66 C62.17244036 68.22785563 62.1587542 70.455721 62.14648438 72.68359375 C62.11354693 78.12263721 62.06183324 83.56121139 62 89 C55.73 89 49.46 89 43 89 C42.95101563 86.17050781 42.90203125 83.34101562 42.8515625 80.42578125 C42.79751852 77.67873955 42.74022444 74.93178347 42.68261719 72.18481445 C42.64438661 70.27895514 42.60952345 68.37302513 42.578125 66.46704102 C42.53234578 63.72386447 42.4743727 60.98117212 42.4140625 58.23828125 C42.40251129 57.38913651 42.39096008 56.53999176 42.37905884 55.66511536 C42.27286168 51.38695252 42.09763806 47.84444039 40 44 C36.10594259 40.77349529 32.95588124 40.5575106 28 41 C24.8069 41.798275 23.41704913 42.52337242 21.25 45 C17.60020473 53.75950865 18.70198929 64.72429501 18.4375 74.125 C18.39419844 75.57292622 18.35058094 77.02084302 18.30664062 78.46875 C18.20020656 81.97906603 18.10023963 85.48948004 18 89 C12.06 89 6.12 89 0 89 C0 59.63 0 30.26 0 0 Z " fill="#292928" transform="translate(1071,437)"/>
<path d="M0 0 C5.97407483 5.70252597 8.07805601 12.89516587 8.34057617 21.08251953 C8.34011072 22.84935506 8.32373874 24.61624486 8.29296875 26.3828125 C8.28872391 27.32309296 8.28447906 28.26337341 8.28010559 29.23214722 C8.26348872 32.19673921 8.22586997 35.16061806 8.1875 38.125 C8.17243115 40.15103176 8.15874662 42.17707431 8.14648438 44.203125 C8.11364116 49.13568594 8.06197926 54.06772263 8 59 C2.39 59 -3.22 59 -9 59 C-9.66 57.02 -10.32 55.04 -11 53 C-11.804375 53.8971875 -11.804375 53.8971875 -12.625 54.8125 C-18.22033369 59.96609682 -24.43981471 61.35099033 -31.890625 61.2109375 C-38.74678169 60.52532183 -44.54317661 57.21141783 -49 52 C-52.10995292 46.77263233 -52.90850185 40.97313857 -52 35 C-50.34903191 29.2268034 -47.47787765 26.06443909 -42.390625 23.0078125 C-35.38274408 20.05350976 -28.50701768 19.62350817 -21 19.375 C-20.03449219 19.33632813 -19.06898437 19.29765625 -18.07421875 19.2578125 C-15.7163256 19.16443059 -13.35842244 19.07865671 -11 19 C-11.87657522 14.31298736 -11.87657522 14.31298736 -14.59375 10.625 C-24.87221939 7.25501004 -34.08671039 10.65931463 -44 14 C-45.4527947 9.69044935 -46.77419232 5.37788459 -48 1 C-33.35889132 -6.86059524 -14.45935931 -10.67659294 0 0 Z M-33.0625 36.3125 C-34.26958992 39.0456351 -34.26958992 39.0456351 -33.375 42.1875 C-32.17020643 45.2504359 -32.17020643 45.2504359 -29 47 C-24.65526007 47.64795964 -20.05495474 47.97893513 -16.015625 46.0546875 C-12.8292146 43.54657239 -10.97614142 40.90456566 -10 37 C-9.74875174 34.33238236 -9.74875174 34.33238236 -10 32 C-11.83653611 30.16346389 -14.65792133 30.78371862 -17.125 30.75 C-23.78192944 30.81569338 -28.43342938 31.12232991 -33.0625 36.3125 Z " fill="#2D2D2D" transform="translate(1195,467)"/>
<path d="M0 0 C6.82834314 6.99905172 7.81749985 15.10300454 7.73046875 24.48046875 C7.73001053 25.30074051 7.72955231 26.12101227 7.7290802 26.96614075 C7.72607971 28.68634503 7.71826026 30.40654714 7.70581055 32.12670898 C7.68747773 34.75319066 7.68530179 37.37932014 7.68554688 40.00585938 C7.68063328 41.68489887 7.67480565 43.36393599 7.66796875 45.04296875 C7.66685593 45.8232695 7.6657431 46.60357025 7.66459656 47.40751648 C7.63051606 51.33161529 7.27670983 54.67895086 6.5 58.5625 C0.89 58.5625 -4.72 58.5625 -10.5 58.5625 C-10.995 55.5925 -10.995 55.5925 -11.5 52.5625 C-12.304375 53.325625 -13.10875 54.08875 -13.9375 54.875 C-19.11896498 59.16647217 -25.64535755 61.21085427 -32.390625 60.9140625 C-39.18059732 59.78240045 -45.25955696 57.08792578 -49.5 51.5625 C-52.86228439 45.76545794 -53.47349558 40.19563165 -52.5 33.5625 C-50.6540293 28.05255714 -47.58119621 25.2869401 -42.5 22.625 C-37.5369031 20.33732252 -32.85694959 19.47966961 -27.41796875 19.24609375 C-26.48662109 19.20419922 -25.55527344 19.16230469 -24.59570312 19.11914062 C-23.15614258 19.06016602 -23.15614258 19.06016602 -21.6875 19 C-20.70845703 18.95681641 -19.72941406 18.91363281 -18.72070312 18.86914062 C-16.31392973 18.7634774 -13.90706017 18.66137673 -11.5 18.5625 C-12.37657522 13.87548736 -12.37657522 13.87548736 -15.09375 10.1875 C-24.28932349 7.17255787 -32.58478495 9.55259253 -41.5 12.5625 C-42.49 12.8925 -43.48 13.2225 -44.5 13.5625 C-44.98108275 12.14648286 -45.45978141 10.72965563 -45.9375 9.3125 C-46.20433594 8.52359375 -46.47117187 7.7346875 -46.74609375 6.921875 C-47.41954708 4.81428012 -47.99150595 2.71496027 -48.5 0.5625 C-33.86289954 -7.59690494 -14.27336791 -11.05486338 0 0 Z M-32.5 33.5625 C-34.82749345 37.05374017 -35.00299316 38.45472251 -34.5 42.5625 C-32.83597163 45.2394152 -31.4836627 46.28998623 -28.44140625 47.1328125 C-23.28347974 47.95042648 -19.90973525 47.63905948 -15.5 44.5625 C-12.91758419 42.25191743 -11.62164799 40.72992832 -11.2578125 37.23828125 C-11.25077808 34.99781931 -11.32485831 32.79555659 -11.5 30.5625 C-22.46654764 29.90131938 -22.46654764 29.90131938 -32.5 33.5625 Z " fill="#0674D7" transform="translate(788.5,467.4375)"/>
<path d="M0 0 C6.96529592 4.06308929 10.18182914 8.189188 13 15.75 C13.61337086 19.60079367 13.58887196 23.33518372 13.48828125 27.2265625 C13.48120651 28.27782318 13.47413177 29.32908386 13.46684265 30.41220093 C13.43909827 33.73389169 13.37639651 37.05382821 13.3125 40.375 C13.28739139 42.64190255 13.26458275 44.90883181 13.24414062 47.17578125 C13.18933688 52.70118547 13.10320316 58.22529647 13 63.75 C6.73 63.75 0.46 63.75 -6 63.75 C-6.04898437 60.76453125 -6.09796875 57.7790625 -6.1484375 54.703125 C-6.20245311 51.81049604 -6.25975835 48.91794967 -6.31738281 46.02539062 C-6.35565669 44.01568762 -6.39051236 42.00591649 -6.421875 39.99609375 C-6.46755991 37.1065232 -6.52554887 34.21742104 -6.5859375 31.328125 C-6.59748871 30.43007141 -6.60903992 29.53201782 -6.62094116 28.60675049 C-6.64081085 27.76618103 -6.66068054 26.92561157 -6.68115234 26.05957031 C-6.69447601 25.32232727 -6.70779968 24.58508423 -6.7215271 23.82550049 C-7.1417451 20.69355242 -8.10335196 18.43972926 -10.625 16.5 C-15.26924784 15.03339542 -19.38779074 15.06928943 -23.8125 16.9375 C-26.81687151 19.4268364 -28.70453306 21.77720906 -29.2984314 25.74258423 C-29.44260885 28.16121105 -29.49348645 30.56542526 -29.51171875 32.98828125 C-29.52966995 33.86904831 -29.54762115 34.74981537 -29.56611633 35.65727234 C-29.6201191 38.4589668 -29.65408266 41.26049187 -29.6875 44.0625 C-29.72068195 45.96682039 -29.75517243 47.87111846 -29.79101562 49.77539062 C-29.87829394 54.43361677 -29.93844706 59.09107919 -30 63.75 C-36.27 63.75 -42.54 63.75 -49 63.75 C-49 42.63 -49 21.51 -49 -0.25 C-43.39 -0.25 -37.78 -0.25 -32 -0.25 C-30.03177114 1.71822886 -30.33751619 5.09808709 -30 7.75 C-29.01 6.63625 -29.01 6.63625 -28 5.5 C-20.51617786 -1.79672658 -9.90466845 -3.92285556 0 0 Z " fill="#2A2929" transform="translate(1300,462.25)"/>
<path d="M0 0 C6.27 0.33 12.54 0.66 19 1 C23.12613528 9.72749272 26.54248814 18.6176397 29.8125 27.6875 C30.31925801 29.08282888 30.82641704 30.47801219 31.33398438 31.87304688 C32.56060386 35.24703713 33.78183189 38.62294777 35 42 C35.51385254 40.51790039 35.51385254 40.51790039 36.03808594 39.00585938 C37.32234254 35.30635382 38.613751 31.60937725 39.90722656 27.91308594 C40.46383889 26.31935584 41.01856379 24.72496515 41.57128906 23.12988281 C42.37057346 20.82436574 43.17683613 18.52138691 43.984375 16.21875 C44.22621521 15.51633179 44.46805542 14.81391357 44.71722412 14.09020996 C46.47951702 9.09519761 48.59031459 4.81937082 51 0 C56.94 0.33 62.88 0.66 69 1 C66.3730843 10.78402188 62.44538938 19.97732613 58.5625 29.3125 C57.84361984 31.04748608 57.12503562 32.78259481 56.40673828 34.51782227 C55.3188628 37.14560299 54.23056691 39.77320102 53.14019775 42.39994812 C50.88880338 47.82883716 48.67484296 53.27128274 46.48828125 58.7265625 C45.69832713 60.68402638 44.90720686 62.64101328 44.115448 64.5977478 C43.3967608 66.38343208 42.68952917 68.17371358 41.98266602 69.96411133 C35.83696818 85.08151591 35.83696818 85.08151591 30 88 C28.47851674 88.08372659 26.95344222 88.10730027 25.4296875 88.09765625 C24.53378906 88.09443359 23.63789062 88.09121094 22.71484375 88.08789062 C21.30912109 88.07532227 21.30912109 88.07532227 19.875 88.0625 C18.93011719 88.05798828 17.98523438 88.05347656 17.01171875 88.04882812 C14.67441613 88.03702357 12.33723939 88.02055759 10 88 C8.85078072 84.10807528 9.36882881 81.68270999 10.4375 77.75 C10.72496094 76.67234375 11.01242187 75.5946875 11.30859375 74.484375 C11.53675781 73.66453125 11.76492188 72.8446875 12 72 C12.61488281 71.99742187 13.22976563 71.99484375 13.86328125 71.9921875 C16.35719269 71.87286159 18.58484578 71.64005854 21 71 C23.45664477 68.58863539 23.45664477 68.58863539 24 65 C23.26718892 58.5743037 20.83971839 52.69991208 18.26171875 46.828125 C17.89907425 45.98384949 17.53642975 45.13957397 17.16279602 44.26971436 C16.01172641 41.59322774 14.85020906 38.92144808 13.6875 36.25 C0 4.61769361 0 4.61769361 0 0 Z " fill="#0474D9" transform="translate(906,462)"/>
<path d="M0 0 C6.27 0 12.54 0 19 0 C19.03738281 2.6503125 19.07476563 5.300625 19.11328125 8.03125 C19.15959249 10.61954648 19.21079107 13.20770383 19.26245117 15.79589844 C19.29555035 17.58422271 19.32362826 19.37264768 19.34643555 21.16113281 C19.38025956 23.74327199 19.43258623 26.32450076 19.48828125 28.90625 C19.49467117 29.69616333 19.5010611 30.48607666 19.50764465 31.29992676 C19.65054193 36.78782185 20.70858827 40.99046399 23 46 C26.50829278 48.27564937 29.88813876 48.50349321 34 48 C38.51653682 45.78601136 40.53070364 43.67251169 42.39761353 39.01608276 C43.4635064 35.44872471 43.48113434 31.92346682 43.51171875 28.22265625 C43.52966995 27.41130722 43.54762115 26.59995819 43.56611633 25.76402283 C43.61988463 23.19689992 43.65400616 20.6299593 43.6875 18.0625 C43.72070276 16.31182377 43.75519513 14.5611715 43.79101562 12.81054688 C43.87799751 8.54034324 43.93834875 4.27094336 44 0 C49.94 0 55.88 0 62 0 C62 20.79 62 41.58 62 63 C56.06 63 50.12 63 44 63 C43.505 59.535 43.505 59.535 43 56 C42.59910156 56.39832031 42.19820312 56.79664063 41.78515625 57.20703125 C36.25188901 62.36388576 30.55340907 65.01660428 22.9375 65.375 C15.58772172 64.67502112 10.23703509 62.35605862 5 57 C0.07982032 49.39179883 -0.14772802 41.8322666 -0.09765625 33.0078125 C-0.0962413 32.06187225 -0.09482635 31.11593201 -0.09336853 30.1413269 C-0.08779484 27.13585171 -0.0752472 24.13045247 -0.0625 21.125 C-0.0574816 19.08073025 -0.05291929 17.03645932 -0.04882812 14.9921875 C-0.0386872 9.99473924 -0.01910666 4.99745411 0 0 Z " fill="#0472D7" transform="translate(663,463)"/>
<path d="M0 0 C0 5.61 0 11.22 0 17 C-2.64 17 -5.28 17 -8 17 C-12.83973691 18.04386482 -17.04822231 19.9129232 -20 24 C-21.70839144 28.9976072 -22.32571297 33.65771672 -22.4140625 38.90234375 C-22.43342865 39.6249086 -22.4527948 40.34747345 -22.4727478 41.0919342 C-22.53197605 43.37367375 -22.57869855 45.65546533 -22.625 47.9375 C-22.66323223 49.4954633 -22.70228692 51.05340666 -22.7421875 52.61132812 C-22.83916112 56.4074414 -22.91917543 60.20337204 -23 64 C-29.27 64 -35.54 64 -42 64 C-42 43.21 -42 22.42 -42 1 C-36.06 1 -30.12 1 -24 1 C-23.34 3.31 -22.68 5.62 -22 8 C-21.29875 7.236875 -20.5975 6.47375 -19.875 5.6875 C-13.34512802 -0.41651077 -8.62780422 -1.23254346 0 0 Z " fill="#0774D8" transform="translate(851,462)"/>
<path d="M0 0 C0 5.61 0 11.22 0 17 C-1.85625 17.0825 -3.7125 17.165 -5.625 17.25 C-10.80128694 17.69507532 -14.11472305 18.31396802 -18 22 C-21.04560023 26.91646239 -21.46435333 30.85345458 -21.51171875 36.4609375 C-21.52966995 37.25150543 -21.54762115 38.04207336 -21.56611633 38.8565979 C-21.61996706 41.36267891 -21.65403281 43.86857227 -21.6875 46.375 C-21.72069548 48.08205722 -21.75518719 49.78908976 -21.79101562 51.49609375 C-21.87810195 55.6640857 -21.9383823 59.83124373 -22 64 C-28.27 64 -34.54 64 -41 64 C-41 43.21 -41 22.42 -41 1 C-35.06 1 -29.12 1 -23 1 C-22.67 3.64 -22.34 6.28 -22 9 C-21.505 8.2575 -21.01 7.515 -20.5 6.75 C-14.53332477 0.18665725 -8.57969445 -0.47664969 0 0 Z " fill="#0473D8" transform="translate(901,462)"/>
<path d="M0 0 C0 20.79 0 41.58 0 63 C-6.27 63 -12.54 63 -19 63 C-19 42.21 -19 21.42 -19 0 C-4 -1 -4 -1 0 0 Z " fill="#282827" transform="translate(1236,463)"/>
<path d="M0 0 C3.15795292 2.0623366 4.63310208 3.44209499 5.5078125 7.15625 C5.84715523 11.58245951 5.39763438 13.48726093 2.625 17.0625 C-0.93002237 19.48599506 -4.43682796 19.71558715 -8.65625 19.48046875 C-11 19 -11 19 -14.0625 16.9375 C-16.38260827 13.41991649 -17 11.20972566 -17 7 C-15.73306843 3.90305615 -14.37148783 2.32778338 -11.875 0.125 C-7.69975532 -1.5087914 -4.27882978 -1.23799777 0 0 Z " fill="#2F2F2E" transform="translate(1232,435)"/>
</svg>
