<?xml version="1.0" encoding="UTF-8"?>
<svg version="1.1" xmlns="http://www.w3.org/2000/svg" width="1536" height="1024">
<path d="M0 0 C506.88 0 1013.76 0 1536 0 C1536 337.92 1536 675.84 1536 1024 C1029.12 1024 522.24 1024 0 1024 C0 686.08 0 348.16 0 0 Z " fill="#FDFDFD" transform="translate(0,0)"/>
<path d="M0 0 C1.22203125 -0.01675781 2.4440625 -0.03351563 3.703125 -0.05078125 C13.63158514 0.50822024 21.63824619 5.19134108 30 10.1875 C31.13171631 10.85225342 32.26343262 11.51700684 33.42944336 12.2019043 C35.75403309 13.56740141 38.07478591 14.93906965 40.39208984 16.31689453 C43.50296387 18.16568647 46.61928311 20.00480097 49.73828125 21.83984375 C53.38180435 23.98518388 57.0209057 26.13770692 60.65625 28.296875 C64.00114427 30.28195283 67.35474601 32.25060994 70.71875 34.203125 C71.49661865 34.65582764 72.2744873 35.10853027 73.07592773 35.57495117 C74.51103258 36.4091323 75.94789809 37.24029595 77.38696289 38.06762695 C82.86948835 41.26085291 87.461697 44.37049209 90.9375 49.8125 C91.42605469 50.5653125 91.91460937 51.318125 92.41796875 52.09375 C96.22929457 58.44223407 96.86757456 63.99237906 96.92700195 71.39672852 C96.93357315 72.07897995 96.94014435 72.76123138 96.94691467 73.4641571 C96.96651011 75.70657494 96.97828222 77.94892609 96.98828125 80.19140625 C96.99235678 80.96402235 96.9964323 81.73663845 97.00063133 82.53266716 C97.02143827 86.62602336 97.03576049 90.71934663 97.04516602 94.81274414 C97.05619137 99.00632509 97.09056142 103.19936977 97.13033772 107.39276218 C97.15668995 110.64705785 97.1648744 113.90122955 97.16844749 117.15562248 C97.17326922 118.69954976 97.18475438 120.2434732 97.20348549 121.78729439 C97.35040574 134.70388452 96.08931312 146.77593915 87.3203125 156.9453125 C82.34373453 161.52860468 76.57892987 164.92320651 70.75 168.3125 C74.18210617 174.92527599 77.82920701 181.0793119 82.33203125 187.0234375 C83.86981451 189.50591958 84.44677237 191.41941013 84.75 194.3125 C82.0892044 196.9732956 73.62870327 195.76899584 69.9050293 195.82739258 C68.35187848 195.85895739 66.79896595 195.90663615 65.24682617 195.97094727 C52.41729523 196.49530009 52.41729523 196.49530009 48.43115234 193.66748047 C45.7447535 190.19418145 44.33606194 186.38109368 42.75 182.3125 C41.96351074 182.7564209 41.17702148 183.2003418 40.36669922 183.65771484 C37.42808955 185.31309263 34.48692584 186.96374273 31.54394531 188.61132812 C30.27434673 189.3233371 29.00577319 190.03717725 27.73828125 190.75292969 C25.90896262 191.78551677 24.07597431 192.81131127 22.2421875 193.8359375 C20.59259033 194.762854 20.59259033 194.762854 18.90966797 195.70849609 C12.73316104 198.84399683 7.66583512 199.65334238 0.875 199.625 C0.11058594 199.64111328 -0.65382813 199.65722656 -1.44140625 199.67382812 C-11.61858084 199.68246749 -19.21309847 194.86980392 -27.875 189.9375 C-28.97021973 189.3189917 -30.06543945 188.7004834 -31.19384766 188.06323242 C-40.19263071 182.9614119 -49.1073242 177.72287072 -57.9921875 172.42578125 C-61.52015408 170.32617572 -65.06591244 168.26322523 -68.6328125 166.23046875 C-69.49471191 165.73828857 -70.35661133 165.2461084 -71.24462891 164.73901367 C-72.85608562 163.82147892 -74.47014823 162.9084979 -76.08740234 162.0012207 C-82.62860249 158.27056738 -87.95547953 154.72931114 -91.5625 147.875 C-92.05363281 146.96878906 -92.54476563 146.06257812 -93.05078125 145.12890625 C-95.30179261 139.84232909 -95.38107094 134.57728389 -95.41113281 128.8894043 C-95.41609772 128.17146698 -95.42106262 127.45352966 -95.42617798 126.71383667 C-95.44070121 124.35478737 -95.44758485 121.99580529 -95.453125 119.63671875 C-95.45595238 118.82601236 -95.45877975 118.01530598 -95.46169281 117.18003273 C-95.47664514 112.89028222 -95.48589973 108.60056499 -95.49023438 104.31079102 C-95.49571506 99.8994475 -95.51974586 95.48841323 -95.54820633 91.07716656 C-95.56690796 87.66690706 -95.57204228 84.25672099 -95.57357025 80.84641457 C-95.57658002 79.22105022 -95.58455136 77.59568665 -95.59775543 75.97037315 C-95.68930637 63.83589679 -95.29744305 54.54656465 -86.56982422 45.37988281 C-82.69091476 41.92307316 -78.40018721 39.57956066 -73.8125 37.1875 C-71.75993554 36.07359212 -69.70921675 34.95627794 -67.66015625 33.8359375 C-66.6045752 33.26198242 -65.54899414 32.68802734 -64.46142578 32.09667969 C-59.14063259 29.14059358 -53.95066529 25.97364883 -48.75 22.8125 C-40.41073017 17.77381027 -32.03023504 12.82009533 -23.5625 8 C-22.13744141 7.18208984 -22.13744141 7.18208984 -20.68359375 6.34765625 C-13.68483781 2.39183768 -8.17899729 0.02566631 0 0 Z " fill="#272727" transform="translate(381.25,402.6875)"/>
<path d="M0 0 C0.88816406 0.01289063 1.77632813 0.02578125 2.69140625 0.0390625 C9.00550754 0.81148456 14.06675635 3.65741578 19.5 6.75 C20.27802979 7.18771729 21.05605957 7.62543457 21.85766602 8.07641602 C24.38791341 9.50295681 26.91315507 10.93804315 29.4375 12.375 C30.71512207 13.10033936 30.71512207 13.10033936 32.01855469 13.84033203 C42.83854336 19.98629704 53.62773293 26.18644747 64.3828125 32.4453125 C68.13652323 34.62805375 71.90558405 36.78241221 75.6796875 38.9296875 C77.82819483 40.16133652 79.97663313 41.39310598 82.125 42.625 C83.12893799 43.19138184 84.13287598 43.75776367 85.16723633 44.34130859 C100.54906787 53.20068549 100.54906787 53.20068549 103.4375 60.375 C103.67800903 63.20977783 103.67800903 63.20977783 103.66455078 66.52050781 C103.66432419 68.38198456 103.66432419 68.38198456 103.66409302 70.28106689 C103.65388061 71.6300879 103.64344864 72.97910727 103.6328125 74.328125 C103.62908049 75.7124613 103.62623441 77.09680025 103.62423706 78.48114014 C103.61661534 82.1176691 103.59697955 85.75403731 103.5748291 89.39050293 C103.55433909 93.10406317 103.54522861 96.81764948 103.53515625 100.53125 C103.51373215 107.81257314 103.47961401 115.09376401 103.4375 122.375 C101.00929224 119.97030731 98.736178 117.57004074 96.6015625 114.90234375 C93.7396856 111.545039 90.60139 109.17079702 86.8125 106.9375 C86.14138184 106.52975342 85.47026367 106.12200684 84.77880859 105.7019043 C76.15242519 100.51305258 67.37945002 95.56523453 58.62210083 90.60150146 C53.15050128 87.50009335 47.69795746 84.37061404 42.2734375 81.1875 C41.11252797 80.50860418 39.95155878 79.82981037 38.79052734 79.15112305 C36.6285544 77.88501351 34.46976615 76.6134424 32.31494141 75.33520508 C22.76790251 69.76053551 13.5710606 64.4187452 2.25 64.9375 C1.15655273 64.94620117 1.15655273 64.94620117 0.04101562 64.95507812 C-9.27964999 65.16110522 -16.58699091 67.48252023 -24.625 72.125 C-25.47715088 72.60525635 -26.32930176 73.0855127 -27.20727539 73.58032227 C-30.00164955 75.16288521 -32.78353131 76.76554952 -35.5625 78.375 C-36.52768555 78.93364746 -37.49287109 79.49229492 -38.48730469 80.06787109 C-43.52739277 82.99178426 -48.55737286 85.93247655 -53.58203125 88.8828125 C-58.36798135 91.6878615 -63.18119032 94.44051337 -68.00976562 97.17138672 C-86.02187235 106.62898236 -86.02187235 106.62898236 -100.5625 120.375 C-100.8925 120.375 -101.2225 120.375 -101.5625 120.375 C-101.63215285 112.78605091 -101.68538865 105.19713516 -101.71793652 97.60793877 C-101.73356162 94.08356268 -101.75474144 90.55940606 -101.78881836 87.03515625 C-101.82778952 82.97914579 -101.84223523 78.9233642 -101.85546875 74.8671875 C-101.87095261 73.60760223 -101.88643646 72.34801697 -101.90238953 71.05026245 C-101.90261612 69.86949127 -101.90284271 68.68872009 -101.90307617 67.47216797 C-101.90973801 66.43736298 -101.91639984 65.40255798 -101.92326355 64.33639526 C-101.18875323 58.30702956 -98.24443158 54.55763725 -93.69042969 50.88867188 C-89.55823415 47.9492946 -85.13302565 45.552411 -80.6875 43.125 C-78.62300533 41.9791115 -76.55920786 40.83196603 -74.49609375 39.68359375 C-73.48530762 39.12269043 -72.47452148 38.56178711 -71.43310547 37.98388672 C-67.50129385 35.78022636 -63.62219624 33.49380929 -59.75 31.1875 C-53.42698822 27.43579622 -47.03483865 23.82894037 -40.59716797 20.27807617 C-32.75411806 15.94599139 -24.98044305 11.49455463 -17.20703125 7.0390625 C-16.01412476 6.36012939 -16.01412476 6.36012939 -14.79711914 5.66748047 C-13.38266172 4.84937301 -11.97901246 4.01202782 -10.59155273 3.14892578 C-6.92930043 0.90006074 -4.30747435 -0.1379395 0 0 Z " fill="#E41721" transform="translate(381.5625,325.625)"/>
<path d="M0 0 C2.6300122 1.29360596 5.13546243 2.71246471 7.6550293 4.2097168 C8.58645752 4.74306641 9.51788574 5.27641602 10.47753906 5.82592773 C12.46555981 6.96797869 14.44828043 8.1192977 16.42602539 9.27905273 C19.61241584 11.13264277 22.82626172 12.92899446 26.04956055 14.7175293 C28.1896434 15.92190911 30.32898513 17.12760693 32.4675293 18.3347168 C33.96727295 19.16447021 33.96727295 19.16447021 35.49731445 20.01098633 C42.79443472 24.20717158 49.18008827 29.12210485 52.5300293 37.0847168 C52.79072571 39.6133728 52.79072571 39.6133728 52.8046875 42.49243164 C52.81421951 43.57390472 52.82375153 44.65537781 52.83357239 45.7696228 C52.83266098 46.9332132 52.83174957 48.09680359 52.83081055 49.2956543 C52.83509567 50.49654694 52.8393808 51.69743958 52.84379578 52.9347229 C52.8495387 55.47494883 52.85003963 58.0151912 52.84570312 60.55541992 C52.84254706 64.43786777 52.86599061 68.31955087 52.89135742 72.2019043 C52.89363082 74.67065334 52.89433372 77.13940442 52.89331055 79.6081543 C52.90252029 80.76769623 52.91173004 81.92723816 52.92121887 83.12191772 C52.88243166 89.89560148 52.38260655 94.55710217 47.99487305 99.9831543 C43.75225152 104.0847168 43.75225152 104.0847168 41.5300293 104.0847168 C40.25096084 102.36427964 39.05791938 100.57963611 37.9050293 98.7722168 C36.90247377 97.20700255 35.89491091 95.6442791 34.84155273 94.11279297 C33.5300293 92.0847168 33.5300293 92.0847168 32.07006836 89.25390625 C30.14006455 85.93291112 28.46298987 83.58201284 25.5300293 81.0847168 C19.8306381 79.5971258 14.38128801 79.72000014 8.5300293 79.8972168 C6.97665828 79.90418477 5.42325659 79.90618229 3.86987305 79.90307617 C0.08714065 79.90624528 -3.68883308 79.97689331 -7.4699707 80.0847168 C-5.61713091 85.42832999 -3.57123393 89.8534266 -0.4074707 94.5847168 C0.38514617 95.78721602 1.176771 96.99036957 1.9675293 98.1940918 C2.38131836 98.81993164 2.79510742 99.44577148 3.22143555 100.09057617 C5.5540938 103.64526882 7.8263186 107.23742778 10.0925293 110.8347168 C10.75490601 111.87208984 10.75490601 111.87208984 11.43066406 112.93041992 C14.5300293 117.85391961 14.5300293 117.85391961 14.5300293 120.0847168 C11.75906487 121.78769591 8.96065645 123.43957885 6.1550293 125.0847168 C5.38030273 125.56166992 4.60557617 126.03862305 3.80737305 126.5300293 C-2.02451606 129.90384944 -6.75212463 131.10200703 -13.4699707 130.0847168 C-16.84106445 128.94018555 -16.84106445 128.94018555 -19.9074707 127.2722168 C-20.48400391 126.96380859 -21.06053711 126.65540039 -21.65454102 126.33764648 C-23.60847579 125.27905124 -25.53951796 124.18551518 -27.4699707 123.0847168 C-28.55592529 122.47394287 -28.55592529 122.47394287 -29.66381836 121.85083008 C-34.47670872 119.13762587 -39.24783631 116.35939616 -44.00024414 113.54174805 C-46.49382337 112.07064476 -49.00061708 110.6240938 -51.5090332 109.1784668 C-53.12165144 108.23163775 -54.73365344 107.28375816 -56.3449707 106.3347168 C-57.08779297 105.91158203 -57.83061523 105.48844727 -58.59594727 105.05249023 C-59.29429687 104.63515625 -59.99264648 104.21782227 -60.7121582 103.7878418 C-61.31914551 103.43367187 -61.92613281 103.07950195 -62.55151367 102.71459961 C-66.49240985 99.36649286 -69.08200183 96.43640463 -69.9296875 91.29812622 C-70.11468697 87.90301048 -70.13669833 84.5432847 -70.09887695 81.14331055 C-70.10128891 79.90227066 -70.10370087 78.66123077 -70.10618591 77.38258362 C-70.10495943 74.09816936 -70.07998251 70.8149656 -70.04644775 67.53076172 C-70.03247047 65.52218352 -70.03605773 63.51445105 -70.04638672 61.50585938 C-70.06517569 57.63461861 -70.05572732 53.76453078 -70.03637695 49.89331055 C-70.04133682 48.69943222 -70.04629669 47.50555389 -70.05140686 46.27549744 C-69.94011055 38.4173408 -69.03489924 35.01315048 -63.78198242 29.22460938 C-57.94336627 24.04869806 -51.44757472 20.44893104 -44.5949707 16.7722168 C-42.78401927 15.7912374 -40.97432711 14.80796277 -39.16471863 13.82450867 C-37.96377745 13.17225179 -36.76213126 12.52129127 -35.55976868 11.87165833 C-32.01178399 9.94885036 -28.51650017 7.95848877 -25.05200195 5.8894043 C-24.25584473 5.42058838 -23.4596875 4.95177246 -22.6394043 4.46875 C-21.20919035 3.62191691 -19.7878881 2.75973535 -18.37866211 1.87841797 C-12.42876881 -1.59123219 -6.56189122 -2.43160326 0 0 Z " fill="#FCFCFC" transform="translate(390.469970703125,437.915283203125)"/>
<path d="M0 0 C0.01213028 1.41701454 0.01213028 1.41701454 0.02450562 2.86265564 C0.10220162 11.79266787 0.18999892 20.72253214 0.28752708 29.65235043 C0.33733939 34.24256848 0.38367004 38.8327652 0.421875 43.4230957 C0.45891902 47.85820897 0.50532928 52.29313681 0.55806351 56.72809029 C0.57650638 58.41480804 0.59165107 60.10156538 0.60334396 61.78834343 C0.67987117 72.45219372 0.80075047 82.26576981 5.625 92.0625 C6.07101562 93.00222656 6.51703125 93.94195313 6.9765625 94.91015625 C12.14895928 102.80854592 19.00075173 107.63544028 27.125 112.1875 C29.08486045 113.314713 31.04448937 114.44232863 33.00390625 115.5703125 C33.99922363 116.13782227 34.99454102 116.70533203 36.02001953 117.29003906 C39.81503802 119.46768198 43.57543854 121.70077177 47.33496094 123.93896484 C55.6413746 128.88325869 63.98918914 133.7541597 72.375 138.5625 C73.22457275 139.05113525 74.07414551 139.53977051 74.94946289 140.04321289 C87.78214612 147.41729539 87.78214612 147.41729539 102 151 C102 151.66 102 152.32 102 153 C99.64404297 154.6706543 99.64404297 154.6706543 96.3671875 156.63671875 C95.78282928 156.98852707 95.19847107 157.34033539 94.59640503 157.70280457 C88.18146138 161.5394481 81.66478942 165.19357158 75.125 168.8125 C73.94260646 169.47312499 72.76031456 170.13393193 71.578125 170.79492188 C53.991978 180.55503407 53.991978 180.55503407 47 179 C37.45438771 175.13113441 28.69487703 169.53376296 19.93310547 164.17382812 C16.72610045 162.22645756 13.48763993 160.33334462 10.25 158.4375 C3.1658658 154.27900161 -3.90974212 150.10615418 -10.97912598 145.92263794 C-12.69231346 144.90912699 -14.40620324 143.89680346 -16.12011719 142.88452148 C-19.4186176 140.93161607 -22.71000877 138.96720125 -26 137 C-26.87241333 136.48427429 -26.87241333 136.48427429 -27.76245117 135.95812988 C-29.51787645 134.91932493 -31.26719477 133.87083833 -33.015625 132.8203125 C-34.04461914 132.20687988 -35.07361328 131.59344727 -36.13378906 130.96142578 C-41.60113124 127.21997544 -45.03041107 123.36982825 -47 117 C-47.39617406 114.19326556 -47.41112974 111.43674964 -47.38818359 108.60546875 C-47.39606903 107.39185165 -47.39606903 107.39185165 -47.40411377 106.15371704 C-47.41724117 103.49811084 -47.40860166 100.84311154 -47.3984375 98.1875 C-47.40046033 96.33097215 -47.4033735 94.47444507 -47.40713501 92.61791992 C-47.41154853 88.7344605 -47.40515867 84.85120865 -47.39111328 80.96777344 C-47.374022 76.00133236 -47.3838684 71.03537772 -47.40183067 66.06895447 C-47.4126948 62.23755254 -47.40921011 58.40626508 -47.4014473 54.57485962 C-47.39945256 52.74410951 -47.40187894 50.91334887 -47.40888596 49.08261108 C-47.41654384 46.5196396 -47.40483604 43.95744518 -47.38818359 41.39453125 C-47.39425629 40.64523346 -47.40032898 39.89593567 -47.40658569 39.12393188 C-47.33095822 32.80966824 -45.87349563 28.17013244 -41.65625 23.28515625 C-32.88868493 15.7424716 -11.67234812 0 0 0 Z " fill="#0274DA" transform="translate(273,463)"/>
<path d="M0 0 C2.53996591 1.25952243 5.07875803 2.5213221 7.61694336 3.78442383 C8.32871483 4.13708565 9.0404863 4.48974747 9.7738266 4.85309601 C15.85593125 7.88340719 21.73624009 11.1900442 27.5625 14.6875 C28.48095703 15.22955078 29.39941406 15.77160156 30.34570312 16.33007812 C32.9152651 17.85927186 35.4612632 19.42028345 38 21 C38.69335449 21.41588379 39.38670898 21.83176758 40.10107422 22.26025391 C44.51854462 25.09683236 46.55015179 28.05527119 48 33 C48.40900296 35.94702666 48.44088745 38.84947799 48.43579102 41.82177734 C48.44586685 42.67641068 48.45594269 43.53104401 48.46632385 44.41157532 C48.49467973 47.2198313 48.50067392 50.02754751 48.50390625 52.8359375 C48.51355529 54.79977637 48.52364836 56.7636131 48.53416443 58.72744751 C48.55209438 62.83788042 48.55768862 66.94812451 48.5559082 71.05859375 C48.55560338 76.30990629 48.5965708 81.56000147 48.64822483 86.81102562 C48.68167901 90.86556495 48.68766303 94.91981268 48.68607903 98.97447586 C48.68960481 100.90967635 48.70279376 102.84488555 48.72607613 104.77994919 C48.92774623 123.27042874 48.92774623 123.27042874 43.68946838 129.45062256 C41.22745727 131.70848338 38.8279637 133.43484775 35.88671875 135.02734375 C35.32001968 135.34249435 34.75332062 135.65764496 34.16944885 135.98234558 C32.35234418 136.98750523 30.52074424 137.96214694 28.6875 138.9375 C27.41180627 139.6374841 26.13739985 140.3398191 24.86425781 141.04443359 C22.3645334 142.42591384 19.86014783 143.7981764 17.35107422 145.16259766 C13.26666509 147.40208936 9.24905793 149.73748765 5.25 152.125 C3.94432731 152.89767116 2.63833048 153.6697948 1.33203125 154.44140625 C0.6560791 154.84117676 -0.01987305 155.24094727 -0.71630859 155.65283203 C-7.538896 159.67753134 -14.38072706 163.6690913 -21.234375 167.640625 C-24.74741452 169.67740366 -28.23766662 171.74276575 -31.703125 173.859375 C-45.58134028 182.23507283 -45.58134028 182.23507283 -54 181 C-64.22682521 178.3386332 -73.51650615 171.82871003 -82.5234375 166.46386719 C-85.00344629 164.99796294 -87.49843622 163.56157515 -90 162.1328125 C-90.78866455 161.6793042 -91.5773291 161.2257959 -92.38989258 160.75854492 C-93.89733387 159.89181824 -95.40751244 159.02983143 -96.9206543 158.1730957 C-98.64738838 157.17122003 -100.32946496 156.09301332 -102 155 C-102 154.34 -102 153.68 -102 153 C-101.46375 152.9484375 -100.9275 152.896875 -100.375 152.84375 C-91.98303592 151.62912362 -85.15210971 147.77768698 -77.75146484 143.8828125 C-75.55384602 142.77511949 -73.3060907 141.85642053 -71 141 C-70.7525 141.78375 -70.505 142.5675 -70.25 143.375 C-68.82508536 146.36732074 -68.02232813 146.86662695 -65 148 C-64.34 148.33 -63.68 148.66 -63 149 C-60.10403802 149.13589466 -57.23339061 149.21278694 -54.3359375 149.23828125 C-53.03687973 149.25038887 -53.03687973 149.25038887 -51.71157837 149.26274109 C-49.87398279 149.27658795 -48.03636142 149.28730741 -46.19873047 149.29516602 C-43.4067187 149.31230529 -40.61591399 149.35617602 -37.82421875 149.40039062 C-36.03646702 149.41052427 -34.24870523 149.41903827 -32.4609375 149.42578125 C-31.21985733 149.45204338 -31.21985733 149.45204338 -29.95370483 149.47883606 C-23.3391299 149.45445699 -18.02894298 147.73581946 -13.0625 143.25 C-10.95336115 138.78358832 -10.23748548 135.15595919 -11.8828125 130.50390625 C-13.86313695 126.41248122 -16.12168464 122.7367929 -18.875 119.125 C-21 116 -21 116 -20.87109375 114.01953125 C-19.76038841 111.44448792 -18.36694484 110.31333417 -16.1875 108.5625 C-6.85792955 100.69378756 -0.88245786 89.33774639 0.16706657 77.04286194 C0.41974732 71.57899958 0.34466205 66.11226041 0.29296875 60.64453125 C0.28736251 58.88905706 0.28309728 57.13357813 0.28010559 55.37809753 C0.26873766 50.79302653 0.23934134 46.2082478 0.20599365 41.62329102 C0.17511762 36.9305415 0.16156305 32.23774403 0.14648438 27.54492188 C0.11446266 18.36315395 0.06336565 9.18160143 0 0 Z " fill="#35B42D" transform="translate(490,461)"/>
<path d="M0 0 C7.79752631 6.79690478 13.75520961 16.60337041 15 27 C15.87447925 42.34990168 14.09841943 55.33210012 3.6875 67.125 C2.46905067 68.42678136 1.24371595 69.72233647 0 71 C0.76183594 71.65355469 0.76183594 71.65355469 1.5390625 72.3203125 C5.86759882 76.06522595 10.00306944 79.90314618 14 84 C12.68107089 87.95678733 10.89562651 88.91381051 7.375 90.95703125 C3.12268803 92.82441167 -0.51389136 93.3479063 -5 92 C-9.49119277 88.64356827 -12.90175965 84.64736052 -16 80 C-17.2375 80.165 -18.475 80.33 -19.75 80.5 C-35.23626792 82.17747643 -47.3702131 80.50877866 -60.26171875 71.40234375 C-68.56921479 64.70887551 -73.53896555 55.03952962 -75.6875 44.6875 C-76.93038268 30.02148433 -75.21040451 17.1092299 -65.8046875 5.2265625 C-47.75404619 -14.10097305 -20.95760065 -14.51295111 0 0 Z " fill="#0473D8" transform="translate(637,447)"/>
<path d="M0 0 C11.87917009 -0.57735942 22.82211102 3.11072358 32.55078125 9.8515625 C34.08984375 11.28125 34.08984375 11.28125 35.08984375 14.28125 C33.69140625 16.69140625 33.69140625 16.69140625 31.71484375 19.34375 C29.19476753 22.68556208 29.19476753 22.68556208 27.08984375 26.28125 C22.72450527 24.60227366 18.63874036 22.55548445 14.4921875 20.40234375 C7.71417902 17.23927313 1.3671106 17.6409034 -5.59765625 19.96875 C-12.54156832 22.70219605 -16.12422689 26.92629714 -19.91015625 33.28125 C-22.19909753 40.75097304 -22.29207742 50.86598319 -19.96875 58.2890625 C-18.77562919 60.49577497 -17.51110858 62.35475583 -15.91015625 64.28125 C-15.20890625 65.209375 -14.50765625 66.1375 -13.78515625 67.09375 C-8.37984619 71.20648592 -1.05036113 74.11427972 5.84765625 73.7421875 C11.84642271 72.50899161 18.44921955 70.35535731 23.29296875 66.55078125 C23.8859375 66.13183594 24.47890625 65.71289062 25.08984375 65.28125 C28.43755685 66.39715437 29.41693372 67.43021141 31.71484375 70.03125 C32.32585937 70.70671875 32.936875 71.3821875 33.56640625 72.078125 C35.2506876 74.51385495 35.71306578 76.36885812 36.08984375 79.28125 C25.82894028 88.02948957 12.60770874 92.27010912 -0.859375 91.6328125 C-12.80434235 90.25631178 -24.10641194 86.22269717 -32.41796875 77.1953125 C-40.58813926 66.71525085 -43.87716526 54.44331715 -42.91015625 41.28125 C-41.14896872 28.28129798 -36.53575503 17.41463226 -25.91015625 9.28125 C-17.62678743 4.32296429 -9.6513794 0.93275076 0 0 Z " fill="#2B2B2A" transform="translate(1024.91015625,436.71875)"/>
<path d="M0 0 C5.94 0 11.88 0 18 0 C18.33 10.56 18.66 21.12 19 32 C20.65 30.35 22.3 28.7 24 27 C29.59801214 22.62929254 35.64733891 22.35604284 42.56640625 22.52734375 C47.47274975 23.20273347 51.055435 25.0781 55 28 C55 28.66 55 29.32 55 30 C55.99 30.33 56.98 30.66 58 31 C62.09044328 37.6956648 62.55219092 44.61621735 62.390625 52.2578125 C62.38496521 53.28687714 62.37930542 54.31594177 62.37347412 55.37619019 C62.35128703 58.62628974 62.30112415 61.87524011 62.25 65.125 C62.22991216 67.34373395 62.21166542 69.56248538 62.1953125 71.78125 C62.15148023 77.1879351 62.0825766 82.59377349 62 88 C55.73 88 49.46 88 43 88 C42.95101563 85.01453125 42.90203125 82.0290625 42.8515625 78.953125 C42.79754689 76.06049604 42.74024165 73.16794967 42.68261719 70.27539062 C42.64434331 68.26568762 42.60948764 66.25591649 42.578125 64.24609375 C42.53244009 61.3565232 42.47445113 58.46742104 42.4140625 55.578125 C42.40251129 54.68007141 42.39096008 53.78201782 42.37905884 52.85675049 C42.35918915 52.01618103 42.33931946 51.17561157 42.31884766 50.30957031 C42.30552399 49.57232727 42.29220032 48.83508423 42.2784729 48.07550049 C41.95578338 45.67044686 41.27203988 44.06022145 40 42 C36.04711925 39.741211 32.48421705 39.60664763 28 40 C23.89167703 41.34310559 22.41726835 42.22168302 20.36010742 46.05883789 C18.64858758 50.3495629 18.52505055 54.42102453 18.48828125 58.99609375 C18.47033005 59.82963882 18.45237885 60.6631839 18.43388367 61.52198792 C18.38009705 64.16044188 18.34598769 66.79871828 18.3125 69.4375 C18.27929888 71.23635267 18.24480666 73.035182 18.20898438 74.83398438 C18.1219794 79.22267731 18.0616431 83.61058594 18 88 C12.06 88 6.12 88 0 88 C0 58.96 0 29.92 0 0 Z " fill="#282727" transform="translate(1071,438)"/>
<path d="M0 0 C6.7206871 6.96837827 7.48077801 16.63109902 7.3203125 25.84375 C7.31606766 26.78403046 7.31182281 27.72431091 7.30744934 28.69308472 C7.29083247 31.65767671 7.25321372 34.62155556 7.21484375 37.5859375 C7.1997749 39.61196926 7.18609037 41.63801181 7.17382812 43.6640625 C7.14098491 48.59662344 7.08932301 53.52866013 7.02734375 58.4609375 C1.08734375 58.4609375 -4.85265625 58.4609375 -10.97265625 58.4609375 C-11.46765625 55.4909375 -11.46765625 55.4909375 -11.97265625 52.4609375 C-13.21015625 53.605625 -13.21015625 53.605625 -14.47265625 54.7734375 C-19.92705058 59.26980004 -25.69703294 61.01677005 -32.7421875 60.75 C-38.86421733 59.95660209 -44.15446423 57.27067072 -48.97265625 53.4609375 C-53.37229062 47.54418783 -53.75749276 40.62537363 -52.97265625 33.4609375 C-51.14441413 27.74492751 -47.1754125 24.1997189 -41.97265625 21.4609375 C-35.22695163 19.20584266 -28.44852771 19.2148272 -21.41015625 19.3359375 C-20.40146484 19.34496094 -19.39277344 19.35398437 -18.35351562 19.36328125 C-15.89297168 19.38660394 -13.43294729 19.41932987 -10.97265625 19.4609375 C-11.39757751 18.16507834 -11.83811507 16.8743331 -12.28515625 15.5859375 C-12.52878906 14.86664063 -12.77242187 14.14734375 -13.0234375 13.40625 C-13.93601172 11.12098845 -13.93601172 11.12098845 -16.97265625 9.4609375 C-25.19896977 8.68467997 -32.92783481 9.22808685 -40.80078125 11.8046875 C-42.97265625 12.4609375 -42.97265625 12.4609375 -45.97265625 12.4609375 C-46.96265625 8.5009375 -47.95265625 4.5409375 -48.97265625 0.4609375 C-34.83416809 -8.49343834 -13.88642151 -10.83415856 0 0 Z " fill="#0774D7" transform="translate(788.97265625,467.5390625)"/>
<path d="M0 0 C5.06186703 4.2487157 6.83385995 9.29452451 7.9453125 15.6328125 C8.19283026 19.03314138 8.17974234 22.41248574 8.140625 25.8203125 C8.1377951 26.76342285 8.13496521 27.7065332 8.13204956 28.67822266 C8.12093692 31.66322006 8.09584922 34.64790719 8.0703125 37.6328125 C8.06027116 39.66796439 8.05114734 41.70312102 8.04296875 43.73828125 C8.02102685 48.70324287 7.98655923 53.66797525 7.9453125 58.6328125 C2.3353125 58.6328125 -3.2746875 58.6328125 -9.0546875 58.6328125 C-9.7146875 56.6528125 -10.3746875 54.6728125 -11.0546875 52.6328125 C-12.2921875 53.7775 -12.2921875 53.7775 -13.5546875 54.9453125 C-19.00436239 59.43778454 -24.78551255 61.20447951 -31.828125 60.9140625 C-38.75366223 60.0392578 -44.51471044 56.96548397 -49.0546875 51.6328125 C-52.52737896 45.57407421 -52.65507284 39.79848063 -51.3671875 33.0078125 C-48.86180729 26.56540626 -44.02017198 23.56322593 -38.0546875 20.6328125 C-32.33336386 19.25364428 -26.5257521 19.52128099 -20.6796875 19.5703125 C-19.14634766 19.57708008 -19.14634766 19.57708008 -17.58203125 19.58398438 C-15.07285556 19.5957095 -12.5638026 19.61212074 -10.0546875 19.6328125 C-10.47296185 18.33653883 -10.90864772 17.04587514 -11.3515625 15.7578125 C-11.59229492 15.03851563 -11.83302734 14.31921875 -12.08105469 13.578125 C-13.03057245 11.25407545 -13.03057245 11.25407545 -16.3046875 9.6328125 C-26.29555287 6.96858173 -35.53275686 10.45883562 -45.0546875 13.6328125 C-45.7146875 9.0128125 -46.3746875 4.3928125 -47.0546875 -0.3671875 C-31.93085878 -7.45648221 -14.36723072 -10.36242773 0 0 Z " fill="#2C2C2B" transform="translate(1195.0546875,467.3671875)"/>
<path d="M0 0 C5.94801317 3.38087394 9.4260572 8.65317161 11.5625 15.0625 C11.64955429 16.64283192 11.68017952 18.22660378 11.67602539 19.80932617 C11.67594986 20.77009567 11.67587433 21.73086517 11.67579651 22.7207489 C11.67063522 23.75520645 11.66547394 24.789664 11.66015625 25.85546875 C11.6587413 26.91663406 11.65732635 27.97779938 11.65586853 29.07112122 C11.65026606 32.46410935 11.63771314 35.85703177 11.625 39.25 C11.61998532 41.54882717 11.61542236 43.84765538 11.61132812 46.14648438 C11.60029583 51.78518162 11.58302952 57.42382966 11.5625 63.0625 C5.2925 63.0625 -0.9775 63.0625 -7.4375 63.0625 C-7.49357422 58.60169922 -7.49357422 58.60169922 -7.55078125 54.05078125 C-7.59701691 51.16472088 -7.64824318 48.27878916 -7.69995117 45.39282227 C-7.73316727 43.38997236 -7.76120952 41.3870296 -7.78393555 39.3840332 C-7.81754234 36.50171406 -7.86986148 33.62024332 -7.92578125 30.73828125 C-7.93217117 29.84538895 -7.9385611 28.95249664 -7.94514465 28.032547 C-8.05683576 23.289951 -8.24006793 19.84368386 -11.4375 16.0625 C-15.49421355 14.71026215 -19.19584954 14.51831637 -23.4375 15.0625 C-27.06062599 17.22095803 -28.82295829 19.22602109 -30.4375 23.0625 C-30.75847828 25.07673125 -30.75847828 25.07673125 -30.75634766 27.18847656 C-30.77621735 27.98900452 -30.79608704 28.78953247 -30.81655884 29.61431885 C-30.83388565 30.89577789 -30.83388565 30.89577789 -30.8515625 32.203125 C-30.87092865 33.08530701 -30.8902948 33.96748901 -30.9102478 34.87640381 C-30.96992848 37.68833816 -31.01638283 40.5003137 -31.0625 43.3125 C-31.10069038 45.22137181 -31.13974273 47.13022659 -31.1796875 49.0390625 C-31.27723998 53.71345198 -31.35689939 58.38766451 -31.4375 63.0625 C-37.7075 63.0625 -43.9775 63.0625 -50.4375 63.0625 C-50.4375 42.2725 -50.4375 21.4825 -50.4375 0.0625 C-44.4975 0.0625 -38.5575 0.0625 -32.4375 0.0625 C-32.1075 2.3725 -31.7775 4.6825 -31.4375 7.0625 C-30.91800781 6.58039063 -30.39851563 6.09828125 -29.86328125 5.6015625 C-29.16589844 4.96992188 -28.46851563 4.33828125 -27.75 3.6875 C-27.06550781 3.06101562 -26.38101562 2.43453125 -25.67578125 1.7890625 C-18.43635937 -3.7952734 -8.15170198 -3.58180845 0 0 Z " fill="#292828" transform="translate(1301.4375,462.9375)"/>
<path d="M0 0 C6.6 0 13.2 0 20 0 C22.5 6.6875 22.5 6.6875 23.35595703 8.984375 C24.92866011 13.19142987 26.5363101 17.38251104 28.1796875 21.5625 C28.54384766 22.49618408 28.90800781 23.42986816 29.28320312 24.3918457 C30.00168307 26.23158495 30.72677438 28.06875819 31.45898438 29.90307617 C31.78962891 30.75361572 32.12027344 31.60415527 32.4609375 32.48046875 C32.90638916 33.60811646 32.90638916 33.60811646 33.36083984 34.75854492 C34.07456727 37.26149814 34.11234579 39.41005896 34 42 C34.66 42 35.32 42 36 42 C36.09796875 41.04222656 36.1959375 40.08445312 36.296875 39.09765625 C36.98231193 34.32476236 38.60612971 29.95272728 40.25 25.4375 C40.56211426 24.56504639 40.87422852 23.69259277 41.19580078 22.79370117 C41.82682659 21.03113062 42.46042058 19.26947724 43.09667969 17.50878906 C43.92241997 15.21546281 44.73446997 12.91800243 45.5390625 10.6171875 C48.86982106 1.13017894 48.86982106 1.13017894 50 0 C51.41570123 -0.08651611 52.835595 -0.10704904 54.25390625 -0.09765625 C55.53491211 -0.09282227 55.53491211 -0.09282227 56.84179688 -0.08789062 C57.73962891 -0.07951172 58.63746094 -0.07113281 59.5625 -0.0625 C60.46419922 -0.05798828 61.36589844 -0.05347656 62.29492188 -0.04882812 C64.53001634 -0.03700223 66.76496493 -0.01968245 69 0 C67.1419235 6.59513759 64.94915438 12.90360867 62.26953125 19.20703125 C61.74203026 20.46670715 61.74203026 20.46670715 61.20387268 21.75183105 C60.07760483 24.44050071 58.94507476 27.12648187 57.8125 29.8125 C56.26542927 33.49829247 54.72286609 37.18594423 53.18359375 40.875 C52.81127625 41.76721756 52.43895874 42.65943512 52.05535889 43.57868958 C49.34368893 50.10562938 46.79859845 56.6727572 44.375 63.3125 C37.60879828 81.69778812 37.60879828 81.69778812 31 87 C28.63989258 87.34057617 28.63989258 87.34057617 25.89453125 87.29296875 C24.91162109 87.28330078 23.92871094 87.27363281 22.91601562 87.26367188 C21.89185547 87.23853516 20.86769531 87.21339844 19.8125 87.1875 C18.25885742 87.16719727 18.25885742 87.16719727 16.67382812 87.14648438 C14.11536301 87.11111389 11.5579422 87.06175544 9 87 C9.14064802 85.58424426 9.28613489 84.16896882 9.43359375 82.75390625 C9.51407959 81.9657251 9.59456543 81.17754395 9.67749023 80.36547852 C10.12181746 77.10651828 11.0010155 74.13015144 12 71 C12.61488281 70.98582031 13.22976563 70.97164062 13.86328125 70.95703125 C19.01181911 70.73924813 19.01181911 70.73924813 23.125 67.9375 C25.29272937 60.66012282 22.03918383 54.05573943 19.0625 47.5 C18.24606197 45.65032777 17.43101424 43.80004139 16.6171875 41.94921875 C16.19018555 40.98419434 15.76318359 40.01916992 15.32324219 39.02490234 C13.04437277 33.81545731 10.86753302 28.56389548 8.6875 23.3125 C8.07563843 21.84490234 8.07563843 21.84490234 7.45141602 20.34765625 C6.2947295 17.56762085 5.14545984 14.78467814 4 12 C3.61021973 11.05688965 3.22043945 10.1137793 2.81884766 9.14208984 C2.45194824 8.24312988 2.08504883 7.34416992 1.70703125 6.41796875 C1.37807861 5.61512451 1.04912598 4.81228027 0.71020508 3.98510742 C0 2 0 2 0 0 Z " fill="#0474D9" transform="translate(906,463)"/>
<path d="M0 0 C6.27 0 12.54 0 19 0 C19.03738281 2.80628906 19.07476563 5.61257813 19.11328125 8.50390625 C19.15956291 11.23778847 19.21077237 13.97153737 19.26245117 16.70532227 C19.29559607 18.59749167 19.32366017 20.48975746 19.34643555 22.38208008 C19.38017421 25.11060454 19.43249865 27.838254 19.48828125 30.56640625 C19.49467117 31.40522842 19.5010611 32.2440506 19.50764465 33.10829163 C19.63974212 38.44914894 20.50400072 42.25254061 23 47 C25.46247759 49.02274945 27.17505191 49.01945021 30.375 49.375 C34.78126778 48.9191792 36.69245177 47.93169048 40 45 C42.83798988 39.62864891 43.46199648 35.23920819 43.51171875 29.22265625 C43.52966995 28.41130722 43.54762115 27.59995819 43.56611633 26.76402283 C43.61988463 24.19689992 43.65400616 21.6299593 43.6875 19.0625 C43.72070276 17.31182377 43.75519513 15.5611715 43.79101562 13.81054688 C43.87799751 9.54034324 43.93834875 5.27094336 44 1 C49.94 1 55.88 1 62 1 C62 21.79 62 42.58 62 64 C56.06 64 50.12 64 44 64 C43.505 60.535 43.505 60.535 43 57 C42.59910156 57.39832031 42.19820312 57.79664063 41.78515625 58.20703125 C36.25188901 63.36388576 30.55340907 66.01660428 22.9375 66.375 C15.58772172 65.67502112 10.23703509 63.35605862 5 58 C0.0362884 50.3244843 -0.1469689 42.68872045 -0.09765625 33.7890625 C-0.0962413 32.82092621 -0.09482635 31.85278992 -0.09336853 30.85531616 C-0.08779365 27.77851201 -0.07524577 24.70178197 -0.0625 21.625 C-0.05748175 19.53255314 -0.05291941 17.44010513 -0.04882812 15.34765625 C-0.03868551 10.23171965 -0.01910518 5.11594231 0 0 Z " fill="#0473D7" transform="translate(663,462)"/>
<path d="M0 0 C5.70218096 4.79501581 8.76232881 10.96756493 9.75 18.3125 C10.54905148 27.83311342 8.98382351 36.83506019 2.75 44.3125 C-2.62485107 49.40505847 -7.77137355 52.16895428 -15.296875 52.41015625 C-24.69296198 52.13953162 -29.24967139 49.52906259 -35.5625 42.875 C-41.21137962 34.29707169 -42.2041741 25.32379682 -40.625 15.375 C-38.32154852 7.28909101 -33.45864239 1.87419565 -26.49609375 -2.59375 C-17.51243167 -6.96840284 -8.3744921 -4.34829397 0 0 Z " fill="#FBFCFD" transform="translate(622.25,458.6875)"/>
<path d="M0 0 C1 1 1 1 1.09765625 4.81640625 C1.09098089 6.39846682 1.07901875 7.98051159 1.0625 9.5625 C1.05798828 10.36880859 1.05347656 11.17511719 1.04882812 12.00585938 C1.03700518 14.00393756 1.01906914 16.00197783 1 18 C-0.24394531 17.98582031 -1.48789062 17.97164063 -2.76953125 17.95703125 C-8.31379018 17.89383244 -12.48560656 18.72117888 -16.8125 22.375 C-20.87072996 27.24487595 -21.31978326 31.00702892 -21.4140625 37.265625 C-21.43342865 38.05902283 -21.4527948 38.85242065 -21.4727478 39.66986084 C-21.53238361 42.19646557 -21.57886443 44.72311625 -21.625 47.25 C-21.66319455 48.96616537 -21.70224715 50.68231187 -21.7421875 52.3984375 C-21.83968276 56.59885848 -21.91937639 60.79908582 -22 65 C-28.27 65 -34.54 65 -41 65 C-41 44.21 -41 23.42 -41 2 C-35.06 2 -29.12 2 -23 2 C-22.34 4.31 -21.68 6.62 -21 9 C-20.49210938 8.51789063 -19.98421875 8.03578125 -19.4609375 7.5390625 C-13.19340562 1.78795647 -8.72447618 -0.51320448 0 0 Z " fill="#0673D8" transform="translate(850,461)"/>
<path d="M0 0 C5.94 0 11.88 0 18 0 C18.33 2.97 18.66 5.94 19 9 C19.495 8.2575 19.99 7.515 20.5 6.75 C24.25753927 2.6167068 28.10279797 0.26000531 33.7421875 -0.24609375 C36.16284624 -0.24952245 38.5830658 -0.13427412 41 0 C41 5.61 41 11.22 41 17 C39.14375 17.0825 37.2875 17.165 35.375 17.25 C30.19871306 17.69507532 26.88527695 18.31396802 23 22 C19.95439977 26.91646239 19.53564667 30.85345458 19.48828125 36.4609375 C19.47033005 37.25150543 19.45237885 38.04207336 19.43388367 38.8565979 C19.38003294 41.36267891 19.34596719 43.86857227 19.3125 46.375 C19.27930452 48.08205722 19.24481281 49.78908976 19.20898438 51.49609375 C19.12189805 55.6640857 19.0616177 59.83124373 19 64 C12.73 64 6.46 64 0 64 C0 42.88 0 21.76 0 0 Z " fill="#0674D8" transform="translate(860,462)"/>
<path d="M0 0 C6.27 0 12.54 0 19 0 C19 20.79 19 41.58 19 63 C12.73 63 6.46 63 0 63 C0 42.21 0 21.42 0 0 Z " fill="#282727" transform="translate(1217,463)"/>
<path d="M0 0 C3.25920481 1.79256264 3.81052889 2.43158667 5 6 C5.79049034 13.00148588 5.79049034 13.00148588 2.625 17 C-0.93427809 19.48557662 -4.40060203 19.70509147 -8.65625 19.5 C-12.24585412 18.73421779 -13.86994058 16.88588695 -16 14 C-17.45147903 11.09704195 -17.37239025 9.22738221 -17 6 C-12.66279598 -1.25100132 -7.65493598 -1.5780519 0 0 Z " fill="#2D2D2C" transform="translate(1232,435)"/>
<path d="M0 0 C1.24523437 0.01804687 2.49046875 0.03609375 3.7734375 0.0546875 C5.18496094 0.08949219 5.18496094 0.08949219 6.625 0.125 C7.09193504 4.79435037 7.47649069 8.7352711 4.4375 12.5625 C0.62066825 16.04005781 -1.73939205 16.91683172 -6.8125 17.5625 C-11.67842105 16.96493075 -13.12084123 15.7760074 -16.375 12.125 C-17.00322358 8.70467162 -16.79834942 6.97169883 -15.25 3.875 C-10.94122654 -0.14652189 -5.62144253 -0.10606495 0 0 Z " fill="#F4F8FB" transform="translate(770.375,497.875)"/>
<path d="M0 0 C1.25425781 0.00902344 2.50851562 0.01804687 3.80078125 0.02734375 C4.75339844 0.03894531 5.70601562 0.05054688 6.6875 0.0625 C6.83438887 6.65703703 5.95011422 9.36196044 1.75 14.375 C-2.94487914 16.96197422 -8.07255881 17.0776453 -13.3125 16.0625 C-15.33693854 14.1068322 -16.16086565 12.7742252 -16.74609375 10.02734375 C-16.75660424 4.57239747 -16.75660424 4.57239747 -14.625 2.125 C-9.84158274 -0.07278631 -5.20612085 -0.04865534 0 0 Z " fill="#F5F5F5" transform="translate(1178.3125,497.9375)"/>
<path d="M0 0 C1 1 1 1 1.09765625 4.81640625 C1.09098089 6.39846682 1.07901875 7.98051159 1.0625 9.5625 C1.05798828 10.36880859 1.05347656 11.17511719 1.04882812 12.00585938 C1.03700518 14.00393756 1.01906914 16.00197783 1 18 C0.67 18 0.34 18 0 18 C0 13.05 0 8.1 0 3 C-4.29 3 -8.58 3 -13 3 C-9.28660751 -0.71339249 -5.06967307 -0.19130842 0 0 Z " fill="#3894E1" transform="translate(850,461)"/>
<path d="M0 0 C-0.66 1.98 -1.32 3.96 -2 6 C-6.75 4.125 -6.75 4.125 -9 3 C-9 2.34 -9 1.68 -9 1 C-2.25 0 -2.25 0 0 0 Z " fill="#49BF42" transform="translate(397,613)"/>
<path d="M0 0 C0.33 0.99 0.66 1.98 1 3 C0.38125 3.5775 -0.2375 4.155 -0.875 4.75 C-2.81347053 6.80249821 -3.90014249 8.43366582 -5 11 C-5.66 10.34 -6.32 9.68 -7 9 C-7 7.1875 -7 7.1875 -6 5 C-4.10171925 3.1543032 -2.10975408 1.61598185 0 0 Z " fill="#3DBD34" transform="translate(476,568)"/>
<path d="M0 0 C0 3 0 3 -1.2421875 4.60546875 C-1.78101563 5.12753906 -2.31984375 5.64960938 -2.875 6.1875 C-3.40867187 6.71730469 -3.94234375 7.24710937 -4.4921875 7.79296875 C-6 9 -6 9 -8 9 C-6.4169423 4.7257442 -3.49431596 2.73468206 0 0 Z " fill="#DE1D26" transform="translate(290,375)"/>
<path d="M0 0 C0.66 0.66 1.32 1.32 2 2 C1.360625 2.556875 0.72125 3.11375 0.0625 3.6875 C-2.19680987 6.22066561 -2.63149047 7.68341424 -3 11 C-3.33 11 -3.66 11 -4 11 C-4.36630156 7.06225823 -4.30233203 5.43460229 -2 2.125 C-1.34 1.42375 -0.68 0.7225 0 0 Z " fill="#4D4D4C" transform="translate(1219,436)"/>
</svg>
